<svg xmlns="http://www.w3.org/2000/svg" viewBox="0 0 200 200">
<defs>
    <style>
        .cls-1{fill:#00151e;}
        .cls-2{fill:#72eeff;}
    </style>
</defs>
<g id="Layer_2" data-name="Layer 2">
    <g id="Layer_1-2" data-name="Layer 1">
        <circle class="cls-1" cx="100" cy="100" r="96.5" transform="translate(-20.3 25.65) rotate(-13.28)"/>
        <path class="cls-2" d="M100,7A93,93,0,1,1,7,100,93.11,93.11,0,0,1,100,7m0-7A100,100,0,1,0,200,100,100,100,0,0,0,100,0Z"/>
        <path class="cls-2" d="M148.18,40.1A29.7,29.7,0,0,0,131,45.51a29.87,29.87,0,0,1,5.41,12.19,15.51,15.51,0,0,1,9.48-3.61c7.23,0,12.64,5.87,11.29,13.09l-9,65.91a15.46,15.46,0,0,1-14.9,13.09c-7.22,0-12.64-5.87-11.28-13.09l9-65.91c2.25-14.9-8.58-27.08-23.48-27.08S78.66,52.28,76.85,67.18l-9,65.91a15.47,15.47,0,0,1-14.9,13.09c-7.22,0-12.64-5.87-11.29-13.09l9-65.91a15.46,15.46,0,0,1,14.9-13.09,11.56,11.56,0,0,1,8.58,3.61,37.4,37.4,0,0,1,8.57-12.19,23.66,23.66,0,0,0-14.89-5c-14.9,0-28.9,12.19-30.7,27.08l-9,65.91c-2.26,14.9,8.58,27.09,23.47,27.09s28.9-12.19,30.7-27.09l9-65.91a15.46,15.46,0,0,1,14.9-13.09c7.22,0,12.64,5.87,11.28,13.09l-9,65.91c-2.25,14.9,8.58,27.09,23.48,27.09s28.89-12.19,30.7-27.09l9-65.91C173.46,52.28,163.08,40.1,148.18,40.1Z"/>
        <path class="cls-2" d="M102.59,142.57a15.51,15.51,0,0,1-9.48,3.61A12,12,0,0,1,85,143a37.48,37.48,0,0,1-8.58,12.19,23.7,23.7,0,0,0,14.9,5,32.14,32.14,0,0,0,17.15-5.42A25.58,25.58,0,0,1,102.59,142.57Z"/>
    </g>
</g>
</svg>