<?xml version="1.0" encoding="utf-8"?>
<!-- Generator: Adobe Illustrator 23.0.1, SVG Export Plug-In . SVG Version: 6.00 Build 0)  -->
<svg version="1.1" id="Layer_1" xmlns="http://www.w3.org/2000/svg" xmlns:xlink="http://www.w3.org/1999/xlink" x="0px" y="0px"
	 viewBox="0 0 908 464" style="enable-background:new 0 0 908 464;" xml:space="preserve" fill="#f5f3ff">
<g>
	<g>
		<path d="M60.18,79.99c7.26,0.78,7.31,2.65,10.03,5.63s4.08,7.83,4.08,14.56c0,2.59-0.26,5.69-0.78,9.32
			c-0.26,4.4-1.3,12.42-3.11,24.07l-9.72,69.5c-0.52,4.15-0.78,6.86-0.78,8.15c0,1.55,0.26,2.72,0.78,3.49
			c0.52,1.04,1.56,1.69,3.11,1.94c1.29,0.26,16.86,0.39,22.3,0.39l10.11-74.16l9.34-63.67c16.85,0,22.99,0.39,28.18,1.16
			c7.78,1.04,12.84,3.75,15.17,8.15c1.56,3.11,2.33,7.38,2.33,12.81c0,1.81-0.13,3.75-0.39,5.82c-0.26,4.66-1.17,13.46-2.72,26.4
			l-9.72,69.11c-0.52,3.63-0.78,6.09-0.78,7.38c-0.26,2.08-0.13,3.49,0.39,4.27c0.52,1.3,1.68,2.08,3.5,2.33
			c1.56,0.26,19.75,0.39,24.94,0.39l11.28-78.43l8.17-59.41c17.37,0,24.89,0.39,30.08,1.16c7.26,1.04,12.06,3.24,14.39,6.6
			c2.07,2.85,3.11,7.25,3.11,13.2v2.33c-0.26,4.92-1.43,15.4-3.5,31.45l-11.67,83.09c-2.08,15.28-3.76,25.37-5.06,30.29
			c-1.56,6.74-3.5,11.78-5.83,15.14c-3.63,4.41-9.6,7.12-17.89,8.15c-5.45,0.78-16.86,1.16-34.23,1.16h-26.62H68.49H53.32
			c-18.15,0-32.19-0.52-37.37-1.55c-7.26-1.03-11.93-3.62-14-7.77C0.64,259.62,0,255.62,0,250.43c0-0.52,0-1.16,0-1.94
			c0.26-5.18,1.42-15.66,3.5-31.45l11.67-83.47l7.78-54.36C39.29,79.21,54.99,79.47,60.18,79.99z"/>
		<path d="M412.04,79.21c14,0,23.34,0.13,28.01,0.39c8.3,0.78,14.13,2.33,17.51,4.66c3.63,2.85,5.45,8.15,5.45,15.92
			c0,2.33-0.13,5.18-0.39,8.54c-0.52,4.4-1.56,12.68-3.11,24.85l-2.33,14.75c-2.08,15.53-2.04,19.97-3.33,24.88
			c-1.82,7.51-4.28,12.95-7.39,16.31c-3.63,3.37-9.21,5.44-16.73,6.21c-5.19,0.78-14.53,1.16-28.01,1.16c-1.3,0-3.11,0-5.45,0
			h-76.24c-2.86,0-4.8,0.13-5.83,0.39c-1.3,0.26-2.33,0.65-3.11,1.16c-0.78,1.04-1.3,2.59-1.56,4.66c-0.26,1.3-2.37,9.81-2.89,13.95
			h9.73h75.85c15.04,0,24.76,0.39,29.17,1.16c5.96,0.78,10.24,2.72,12.84,5.82c2.85,3.11,4.53,8.81,5.06,17.08
			c0.52,4.66,0.78,12.68,0.78,24.07c0,1.3,0,3.37,0,6.21h-141.2c-2.59,0-4.54,0-5.83,0c-15.56,0-25.93-0.52-31.12-1.55
			c-5.71-1.29-9.6-3.75-11.67-7.38c-1.56-2.58-2.33-6.6-2.33-12.04c0-1.03,0-1.94,0-2.72c0.26-5.18,1.42-15.53,3.5-31.06
			l11.67-83.09c2.07-13.72,3.63-22.91,4.67-27.57c1.81-9.32,4.53-15.66,8.17-19.03c3.63-3.37,9.07-5.57,16.34-6.6
			c5.45-0.78,17.12-1.16,35.01-1.16H412.04z M321.41,134.34c-1.04,0.26-1.82,0.78-2.33,1.55c-0.52,0.78-1.04,1.94-1.56,3.49
			c-0.26,1.29-1.97,10.93-2.48,15.32h9.73h66.91c1.81,0,3.11,0,3.89,0c2.33-0.25,3.89-0.9,4.67-1.94c0.52-0.51,0.9-1.55,1.17-3.11
			c0.26-1.55,1.96-11.31,2.48-15.71h-8.95h-66.91C324.39,133.96,322.18,134.08,321.41,134.34z"/>
		<path d="M635.02,79.21c14,0,23.34,0.13,28.01,0.39c8.3,0.78,14.13,2.33,17.51,4.66c3.63,2.85,5.45,8.15,5.45,15.92
			c0,2.33-0.13,5.18-0.39,8.54c-0.52,4.4-1.56,12.68-3.11,24.85l-2.33,14.75c-2.08,15.53-2.04,19.97-3.33,24.88
			c-1.82,7.51-4.28,12.95-7.39,16.31c-3.63,3.37-9.21,5.44-16.73,6.21c-5.19,0.78-14.53,1.16-28.01,1.16c-1.3,0-3.11,0-5.45,0H543
			c-2.86,0-4.8,0.13-5.84,0.39c-1.3,0.26-2.33,0.65-3.11,1.16c-0.78,1.04-1.3,2.59-1.56,4.66c-0.26,1.3-2.37,9.81-2.89,13.95h9.72
			h75.85c15.04,0,24.76,0.39,29.17,1.16c5.96,0.78,10.24,2.72,12.84,5.82c2.85,3.11,4.53,8.81,5.06,17.08
			c0.52,4.66,0.78,12.68,0.78,24.07c0,1.3,0,3.37,0,6.21h-141.2c-2.59,0-4.54,0-5.84,0c-15.56,0-25.93-0.52-31.12-1.55
			c-5.71-1.29-9.6-3.75-11.67-7.38c-1.56-2.58-2.33-6.6-2.33-12.04c0-1.03,0-1.94,0-2.72c0.26-5.18,1.42-15.53,3.5-31.06
			l11.67-83.09c2.07-13.72,3.63-22.91,4.67-27.57c1.81-9.32,4.53-15.66,8.17-19.03c3.63-3.37,9.07-5.57,16.34-6.6
			c5.45-0.78,17.12-1.16,35.01-1.16H635.02z M544.38,134.34c-1.04,0.26-1.82,0.78-2.33,1.55c-0.52,0.78-1.04,1.94-1.56,3.49
			c-0.26,1.29-1.97,10.93-2.48,15.32h9.73h66.91c1.81,0,3.11,0,3.89,0c2.33-0.25,3.89-0.9,4.67-1.94c0.52-0.51,0.9-1.55,1.17-3.11
			c0.26-1.55,1.96-11.31,2.48-15.71h-8.95H551C547.36,133.96,545.16,134.08,544.38,134.34z"/>
		<path d="M766.8,3.49c5.18,2.33,8.42,6.74,9.73,13.2c0.26,2.59,0.39,5.69,0.39,9.32c0,2.33,0,5.05,0,8.15
			c-0.52,7.51-2.47,22.52-5.84,45.04h85.58c2.59,0,4.41,0,5.45,0c16.08,0,26.71,0.65,31.9,1.94c6.22,1.29,10.37,4.14,12.45,8.54
			c1.03,2.59,1.56,6.21,1.56,10.87c0,0.78,0,1.68,0,2.72c-0.26,5.18-1.43,15.4-3.5,30.67l-11.67,83.09
			c-2.33,15.8-4.15,26.27-5.45,31.45c-1.82,7.51-4.35,12.81-7.59,15.92c-3.25,3.11-8.5,5.18-15.75,6.21
			c-5.45,0.78-16.86,1.16-34.23,1.16h-85.58c-18.93,0-31.12-0.52-36.56-1.55c-5.71-1.03-9.72-3.24-12.06-6.6
			c-1.82-2.85-2.72-7.12-2.72-12.81c0-2.58,0.13-5.57,0.39-8.93c0.52-4.4,1.56-12.68,3.11-24.85l11.67-83.09l7.78-54.75L727.12,0
			C748.38,0,761.6,1.16,766.8,3.49z M753.96,202.68c-0.78,4.66-1.17,7.64-1.17,8.93c0,1.55,0.26,2.72,0.78,3.49
			c0.78,0.78,1.95,1.3,3.5,1.55c1.29,0.26,4.15,0.39,8.56,0.39h71.96l9.73-69.11c0.52-4.4,0.78-7.24,0.78-8.54
			c0-1.29-0.13-2.2-0.39-2.72c-0.52-1.29-1.56-2.07-3.11-2.33c-1.3-0.26-3.76-0.39-7.39-0.39h-1.17h-72.74L753.96,202.68z"/>
	</g>
	<g>
		<path d="M297.06,342.41h25.24c-1.19,7.88-2.13,12.97-2.84,15.29c-0.71,2.32-1.6,4.05-2.67,5.21c-1.42,1.62-3.67,2.72-6.75,3.3
			c-2.49,0.34-8,0.52-16.53,0.52h-31.82c-2.02,0-3.38,0.06-4.09,0.18c-0.83,0-1.48,0.11-1.96,0.34c-0.71,0.35-1.19,0.98-1.42,1.91
			c-0.24,0.69-0.48,2.03-0.71,3.99l-4.44,30.74h39.1h25.24c-0.95,6.84-1.66,11.35-2.13,13.55c-0.83,3.59-2.02,6.14-3.55,7.64
			c-1.54,1.39-3.91,2.32-7.11,2.78c-2.49,0.34-7.7,0.52-15.64,0.52c-0.12,0-0.24,0-0.36,0h-39.1l-1.6,10.94
			c-0.95,6.6-1.66,11.06-2.13,13.37c-0.71,2.77-1.54,4.92-2.49,6.43c-1.42,2.08-3.67,3.41-6.75,4c-2.61,0.58-8.41,0.87-17.42,0.87
			l6.75-47.42l7.29-49.85c0.95-7.29,1.72-12.16,2.31-14.59c1.07-3.59,2.61-6.02,4.62-7.29c1.54-1.16,3.91-1.86,7.11-2.09
			c2.37-0.23,6.46-0.35,12.26-0.35c0.47,0,1.24,0,2.31,0H297.06z"/>
		<path d="M375.27,351.79c0.95-3.24,2.37-5.5,4.27-6.78c1.42-1.04,3.55-1.74,6.4-2.09c2.13-0.23,5.51-0.34,10.13-0.34
			c1.07,0,2.9,0,5.51,0h6.58h25.24h7.29c2.49,0,4.27,0,5.33,0c4.74,0,8.18,0.11,10.31,0.34c2.25,0.35,3.97,0.99,5.15,1.91
			c1.42,1.16,2.25,3.18,2.49,6.08c0,0.35,0,0.75,0,1.22c0,2.32-0.53,7.3-1.6,14.94l-0.89,6.25l-3.56,24.49l-0.89,6.43
			c-0.95,7.07-1.72,11.7-2.31,13.9c-0.71,2.9-1.72,5.04-3.02,6.43c-1.42,1.62-3.62,2.72-6.58,3.3c-2.61,0.46-8.24,0.69-16.89,0.69
			l3.55-24.32l0.89-6.43l3.55-24.49l0.89-6.25H404.6c-2.02-0.11-3.32-0.11-3.91,0c-0.71,0-1.31,0.17-1.78,0.52
			c-0.47,0.34-0.89,1.04-1.24,2.08c-0.12,0.58-0.3,1.8-0.53,3.65l-3.55,24.49l-0.89,6.43c-1.19,7.76-2.13,12.8-2.84,15.11
			c-0.83,3.01-2.13,5.16-3.91,6.43c-1.54,1.16-3.91,1.97-7.11,2.43c-2.37,0.24-7.35,0.35-14.93,0.35l3.55-24.32l0.89-6.43
			l3.55-24.49l0.89-6.25C373.85,359.2,374.67,354.11,375.27,351.79z"/>
		<path d="M557.63,342.93c2.37,0.35,4.15,0.93,5.33,1.74c1.78,1.28,2.67,3.71,2.67,7.3c0,0.69-0.06,1.51-0.18,2.43
			c-0.12,2.2-0.6,6.37-1.42,12.51l-2.84,19.45l-2.49,17.72c-1.19,8.34-2.19,13.67-3.02,15.98c-0.83,2.55-2.02,4.4-3.56,5.56
			c-1.42,1.04-3.38,1.8-5.86,2.26c-2.49,0.46-8.18,0.69-17.06,0.69h-38.57c-8.65,0-14.16-0.23-16.53-0.69
			c-2.49-0.46-4.24-1.33-5.24-2.61c-1.01-1.27-1.51-3.3-1.51-6.08c0-0.35,0-0.69,0-1.04c0.12-2.31,0.65-7.01,1.6-14.07l0.65-4.5
			c0.83-6.25,1.48-10.42,1.96-12.51c0.83-4.05,2.01-6.83,3.55-8.34c1.54-1.51,3.85-2.49,6.93-2.95c2.49-0.35,7.05-0.52,13.69-0.52
			c0.59,0,1.42,0,2.49,0h34.66c1.42,0,2.37-0.06,2.84-0.18c0.71-0.11,1.24-0.4,1.6-0.87c0.24-0.35,0.41-0.84,0.53-1.48
			c0.12-0.63,0.71-3.86,0.95-5.83h-4.44h-34.66c-6.52,0-10.84-0.11-12.98-0.35c-3.2-0.46-5.39-1.5-6.58-3.12
			c-1.07-1.51-1.78-4.17-2.13-7.99c-0.12-2.09-0.18-5.44-0.18-10.07c0-0.7,0-1.68,0-2.96h64.35c1.42,0,2.37,0,2.84,0
			c0.59,0,1.12,0,1.6,0C551.71,342.41,555.38,342.59,557.63,342.93z M496.72,397.1c-0.59,0.12-1.01,0.35-1.24,0.69
			c-0.36,0.46-0.6,1.33-0.71,2.61c-0.12,0.58-0.68,3.67-0.91,5.07h4.27h30.57c1.42,0,2.37-0.06,2.84-0.18
			c0.59-0.11,1-0.34,1.24-0.69c0.24-0.34,0.47-0.92,0.71-1.74c0.12-0.58,0.68-3.96,0.91-5.93h-4.44h-30.57
			C497.96,396.92,497.07,396.98,496.72,397.1z"/>
		<path d="M580.38,351.79c0.95-3.24,2.37-5.5,4.27-6.78c1.42-1.04,3.55-1.74,6.4-2.09c2.13-0.23,5.51-0.34,10.13-0.34
			c1.07,0,2.9,0,5.51,0h6.58h25.24h7.29c2.49,0,4.27,0,5.33,0c4.74,0,8.18,0.11,10.31,0.34c2.25,0.35,3.97,0.99,5.15,1.91
			c1.42,1.16,2.25,3.18,2.49,6.08c0,0.35,0,0.75,0,1.22c0,2.32-0.53,7.3-1.6,14.94l-0.89,6.25l-3.56,24.49l-0.89,6.43
			c-0.95,7.07-1.72,11.7-2.31,13.9c-0.71,2.9-1.72,5.04-3.02,6.43c-1.42,1.62-3.62,2.72-6.58,3.3c-2.61,0.46-8.24,0.69-16.89,0.69
			l3.55-24.32l0.89-6.43l3.55-24.49l0.89-6.25h-32.53c-2.02-0.11-3.32-0.11-3.91,0c-0.71,0-1.31,0.17-1.78,0.52
			c-0.47,0.34-0.89,1.04-1.24,2.08c-0.12,0.58-0.3,1.8-0.53,3.65l-3.55,24.49l-0.89,6.43c-1.19,7.76-2.13,12.8-2.84,15.11
			c-0.83,3.01-2.13,5.16-3.91,6.43c-1.54,1.16-3.91,1.97-7.11,2.43c-2.37,0.24-7.35,0.35-14.93,0.35l3.55-24.32l0.89-6.43
			l3.55-24.49l0.89-6.25C578.96,359.2,579.79,354.11,580.38,351.79z"/>
		<path d="M747.46,342.59h25.24c-1.07,7.06-1.9,11.76-2.49,14.07c-0.83,3.36-2.02,5.73-3.56,7.12c-1.9,1.62-4.98,2.61-9.24,2.95
			c-2.37,0.12-6.87,0.18-13.51,0.18h-31.82c-2.61,0-4.27,0.11-4.98,0.34c-0.71,0.12-1.24,0.29-1.6,0.52
			c-0.48,0.46-0.83,1.16-1.07,2.09c-0.12,0.58-0.3,1.74-0.53,3.47l-4.44,30.74h39.1h25.24c-1.07,7.53-1.9,12.45-2.49,14.76
			c-0.83,3.24-2.08,5.56-3.73,6.95c-1.66,1.27-4.27,2.09-7.82,2.43c-2.37,0.24-7.17,0.35-14.4,0.35c-0.12,0-0.24,0-0.36,0h-39.1
			c-0.12,0-0.24,0-0.36,0c-8.65,0-14.16-0.23-16.53-0.69c-2.61-0.58-4.39-1.62-5.33-3.13c-0.83-1.16-1.24-3.01-1.24-5.56
			c0-0.35,0-0.75,0-1.22c0.12-2.32,0.71-6.95,1.78-13.9c0.59-4.87,1.57-11.9,2.93-21.11c1.36-9.2,2.16-14.56,2.4-16.06
			c0.95-6.84,1.66-11.35,2.13-13.55c0.83-3.59,2.07-6.14,3.73-7.64c1.54-1.39,3.91-2.31,7.11-2.78c2.49-0.23,6.93-0.34,13.33-0.34
			c0.47,0,1.24,0,2.31,0H747.46z"/>
		<path d="M848.8,342.41c6.28,0,10.46,0.06,12.56,0.17c3.72,0.35,6.33,1.04,7.85,2.09c1.63,1.28,2.44,3.66,2.44,7.14
			c0,1.04-0.06,2.32-0.17,3.83c-0.23,1.97-0.7,5.69-1.4,11.14l-1.05,6.61c-0.93,6.96-0.91,8.95-1.49,11.15
			c-0.82,3.37-1.92,5.8-3.31,7.31c-1.63,1.51-4.13,2.44-7.5,2.78c-2.33,0.35-6.51,0.52-12.56,0.52c-0.58,0-1.4,0-2.44,0h-34.18
			c-1.28,0-2.15,0.06-2.62,0.17c-0.58,0.12-1.05,0.29-1.4,0.52c-0.35,0.47-0.58,1.16-0.7,2.09c-0.12,0.58-1.06,4.4-1.3,6.25h4.36h34
			c6.74,0,11.1,0.17,13.08,0.52c2.67,0.35,4.59,1.22,5.75,2.61c1.28,1.39,2.03,3.95,2.27,7.66c0.23,2.09,0.35,5.69,0.35,10.79
			c0,0.58,0,1.51,0,2.78h-63.3c-1.16,0-2.04,0-2.62,0c-6.98,0-11.63-0.23-13.95-0.7c-2.56-0.58-4.3-1.68-5.23-3.31
			c-0.7-1.16-1.05-2.96-1.05-5.4c0-0.46,0-0.87,0-1.22c0.11-2.32,0.64-6.96,1.57-13.92l5.23-37.25c0.93-6.15,1.63-10.27,2.09-12.36
			c0.81-4.18,2.03-7.02,3.66-8.53c1.63-1.51,4.07-2.49,7.32-2.96c2.44-0.35,7.67-0.52,15.69-0.52H848.8z M808.17,367.12
			c-0.47,0.12-0.82,0.35-1.05,0.7c-0.23,0.35-0.47,0.87-0.7,1.57c-0.12,0.58-0.88,4.9-1.11,6.87h4.36h29.99c0.81,0,1.4,0,1.74,0
			c1.05-0.11,1.74-0.4,2.09-0.87c0.23-0.23,0.41-0.7,0.52-1.39c0.11-0.7,0.88-5.07,1.11-7.04h-4.01h-29.99
			C809.5,366.95,808.52,367.01,808.17,367.12z"/>
	</g>
	<path d="M360.8,343.48l-5.17,35.19l-3.74,26.82c-0.95,6.04-1.67,10.17-2.14,12.37c-0.6,3.14-1.43,5.46-2.5,6.97
		c-1.42,2.21-3.8,3.6-7.13,4.18c-2.61,0.58-8.32,0.87-17.11,0.87l6.42-44.24l6.06-42.15H360.8z M361.69,337.03h-25.31l0.53-4.7
		c0.95-6.62,1.72-11.03,2.32-13.23c0.83-3.72,2.02-6.33,3.56-7.84c1.43-1.39,3.62-2.32,6.6-2.79c2.49-0.35,7.96-0.52,16.4-0.52
		L361.69,337.03z"/>
</g>
</svg>
