<?xml version="1.0" encoding="utf-8"?>
<svg viewBox="147.42 77.91 863.11 1002.13" xmlns="http://www.w3.org/2000/svg">
  <defs>
    <style type="text/css">
	.st0{fill:url(#SVGID_1_);stroke:url(#SVGID_2_);stroke-miterlimit:10;}
	.st1{fill:url(#SVGID_3_);}
	.st2{fill:url(#SVGID_4_);}
	.st3{fill:url(#SVGID_5_);}
	.st4{fill:url(#SVGID_6_);}
	.st5{fill:url(#SVGID_7_);}
</style>
  </defs>
  <g>
    <linearGradient id="SVGID_1_" gradientUnits="userSpaceOnUse" x1="980.8569" y1="271.9072" x2="629.2824" y2="528.1199">
      <stop offset="0" style="stop-color:#181818"/>
      <stop offset="0.0831" style="stop-color:#151515"/>
      <stop offset="0.5923" style="stop-color:#050505"/>
      <stop offset="1" style="stop-color:#000000"/>
    </linearGradient>
    <linearGradient id="SVGID_2_" gradientUnits="userSpaceOnUse" x1="162.4399" y1="580.508" x2="993.1698" y2="580.508">
      <stop offset="0" style="stop-color:#000000"/>
      <stop offset="0.2635" style="stop-color:#2E0E35"/>
      <stop offset="1" style="stop-color:#000000"/>
    </linearGradient>
    <polygon class="st0" points="162.97,714.99 204.39,409.63 312.34,367.35 316.06,365.84 319.63,364.48 426.94,322.42 447.05,314.58 &#10;&#9;&#9;447.22,314.42 471.76,304.87 480.67,301.37 480.82,301.38 533.8,280.52 546.58,275.51 546.73,275.51 787.37,181.13 790.95,179.77 &#10;&#9;&#9;794.2,178.42 992.56,100.77 908.48,720.58 791.82,814.59 788.87,816.89 785.9,819.32 522.61,1031.48 489.81,1057.9 485.4,1060.4 &#9;&#10;&#9;&#9;"/>
    <g>
      <linearGradient id="SVGID_3_" gradientUnits="userSpaceOnUse" x1="596.8925" y1="1101.6697" x2="543.2151" y2="74.9271" gradientTransform="matrix(1 0 0 -1 0 1157.9574)">
        <stop offset="0" style="stop-color:#FF31FF"/>
        <stop offset="1" style="stop-color:#005A8E"/>
      </linearGradient>
      <path class="st1" d="M992.2,101.23l-84,619.19l-116.56,93.93l-2.95,2.29l-2.98,2.44l-263.29,212.16l-32.8,26.42l-1.68-1.71 l-2.28,1.68L163.28,714.89l41.38-305.05l107.78-42.21c46.45-203.9,267.8-240.02,270.21-240.46c22.35-3.7,43.41-5.55,63.16-5.55 c53.4,0,97.16,13.52,130.5,40.44c3.2,2.34,6.22,4.98,9.22,7.78c3.15,2.8,5.97,5.75,8.79,8.85L992.2,101.23 M1010.53,77.91 l-23.82,9.32l-188.55,73.8c-0.85-0.81-1.73-1.63-2.64-2.44c-3.76-3.52-7.04-6.27-10.35-8.69c-35.39-28.6-82.47-43.33-139.36-43.33 c-20.5,0-42.58,1.94-65.61,5.75c-9.71,1.69-229.19,42.02-280.53,244.15l-100.48,39.35l-8.23,3.22l-1.19,8.76l-41.39,305.07 l-0.96,7.1l4.91,5.22l322.37,342.74l9.14,9.71l2.26,2.4l2.36-2.14l10.6-8.54l32.8-26.42l263.29-212.15l3.08-2.53l2.63-2.04 l116.78-94.1l4.66-3.76l0.8-5.93l84-619.19L1010.53,77.91L1010.53,77.91z"/>
      <g>
        <linearGradient id="SVGID_4_" gradientUnits="userSpaceOnUse" x1="580.8068" y1="639.9762" x2="1128.8135" y2="639.9762" gradientTransform="matrix(0.9755 7.246636e-03 0.1389 -1.024 -371.2032 1241.4387)">
          <stop offset="0" style="stop-color:#FF31FF"/>
          <stop offset="1" style="stop-color:#005A8E"/>
        </linearGradient>
        <path class="st2" d="M788.68,816.65l-2.98,2.44l-263.28,212.15l-32.8,26.42l-2.03,2.13l-1.93-2.16L348.49,912.64l1.93-1.22 l-2.2-2.17l48.1-28.78c58.01-37.95,55.01-101.33,53.35-116.14c-0.29-2.16-0.44-3.24-0.44-3.24 c-82.56,11.1-108.85-9.44-108.85-9.44l-11.86-53.27l-0.89-3.24l0.04-0.31c1.14-22.5,11.7-25.66,11.7-25.66l3.52,0.03 c59.26,1.52,108.2-6.29,144.87-15.72c2.74-0.75,5.34-1.5,8.09-2.25c45.61-12.61,70.52-27.38,70.52-27.38 c10.04-5.78,19.28-12.19,27.72-19.22c3.94-3.05,5.93-4.73,5.93-4.73c3.33-2.9,6.37-5.81,9.43-8.87 c18.24-17.59,31.6-37.07,41.49-56.88c2.97-5.68,5.67-11.52,7.91-17.21c1.7-3.84,3.12-7.84,4.52-11.68 c1.25-3.84,2.49-7.53,3.59-11.38c0.69-1.84,1.26-3.84,1.65-5.69c11.74-43.23,10.53-80.85,9.75-93.49 c-0.04-1.85-0.21-2.78-0.21-2.78c0.06-0.46-0.03-0.93-0.11-1.39c-0.13-0.16-0.11-0.31-0.11-0.31 c-0.06-6.01-0.82-10.18-2.03-13.12c-0.79-1.7-1.8-2.94-2.71-3.87c-0.92-0.78-2.03-1.25-3.01-1.56c-3.4-0.95-7.12,0.56-9.03,1.63 c-3.6,1.67-6.27,3.96-6.27,3.96l-22.37,13.4c-1.44,0.91-2.87,1.67-4.3,2.43c-49.19,28.15-96.32,47.53-138.37,60.94 c-1.07,0.3-2.16,0.75-3.23,1.06l-3.21,0.9c-13.49,4.22-26.32,7.82-38.62,10.81h-0.14c-2.14,0.6-4.26,1.05-6.37,1.49 c-4.87,1.2-9.7,2.24-14.4,3.28l-6.64,1.34c-5.89,1.19-11.47,2.23-16.89,3.27c-11.12,1.92-21.14,3.23-29.94,4.25 c-18.38,2.33-32.27,3-40.99,3.39l-2.94-0.02c-0.9,0.15-1.63,0.14-2.37,0.14c-2.93-0.02-4.55-0.03-4.55-0.03 c-19.17,0.63-11.11-67.44-11.11-67.44c1.4-17.87,3.97-34.65,7.71-50.35c46.98-202.2,266.49-235.56,266.49-235.56 c88.03-14.61,146.67,1.24,185.83,29.74c2.28,1.56,4.55,3.27,6.65,5.14c5.68,4.67,11.03,9.64,15.94,14.61 c33.98,36.32,47,83.28,51.79,117.23c0.26,1.39,0.38,2.62,0.65,3.86c0.11,1.39,0.21,2.78,0.48,4.01 c0.97,9.1,1.52,16.97,1.57,23.13l-0.02,0.15c0.13,1.23,0.12,2.31,0.13,3.39c0.12,2.31,0.02,4.16-0.04,5.7l-0.02,0.15 c0.04,2.93-0.04,4.62-0.04,4.62c11.97,54.66-34.33,185.95-34.33,185.95c14.96,2.27,2.43,56.74,2.43,56.74 c-39.99,46.87-104.74,88.01-104.74,88.01L707.42,802l-0.06,2.62c2.1-0.29,4.2-0.59,6.12-0.73 C753.11,799.58,775.94,807.76,788.68,816.65z"/>
        <linearGradient id="SVGID_5_" gradientUnits="userSpaceOnUse" x1="953.0493" y1="807.9863" x2="655.4923" y2="626.3199" gradientTransform="matrix(0.9755 7.246636e-03 0.1389 -1.024 -371.2032 1241.4387)">
          <stop offset="0" style="stop-color:#FF31FF"/>
          <stop offset="0.5146" style="stop-color:#FFFFFF"/>
          <stop offset="1" style="stop-color:#2B81FF"/>
        </linearGradient>
        <path class="st3" d="M323.99,482.66c0,0,142.34,6.37,308.51-91.93l22.32-13.49c0,0,24.14-19.87,23.3,14.63 c0,0,15.61,125.54-78.03,208.02c0,0-86.88,75.76-257.17,69.45L323.99,482.66z"/>
        <g>
          <path d="M712.58,800.67c-0.59,0-1.17-0.01-1.78,0.14l0.04-0.31l1.34-125.77c10.82-7.16,67.68-45.28,103.82-87.71l0.69-0.77 l0.13-0.92c2.09-8.93,11.06-51.25-1.51-59.2c6.86-20.3,44.37-133.31,33.56-184.57c0-1.08,0.21-3.7-0.01-7.55l0.02-0.15 c0.09-1.69,0.06-3.7,0.06-5.86c0-1.08-0.15-2.16-0.15-3.24c-0.32-6.32-0.89-14.03-1.91-22.67c-0.13-1.23-0.38-2.62-0.65-3.86 c-0.11-1.39-0.23-2.62-0.51-3.86c-5.21-34.1-18.37-79.98-51.41-115.68c-2.81-3.1-5.64-6.05-8.79-8.85 c-3-2.8-6.02-5.44-9.22-7.78c-45.66-36.87-110.88-48.61-193.65-34.89c-2.4,0.44-223.75,36.57-270.21,240.46 c-3.54,15.23-6.04,31.55-7.36,48.81c-0.6,5.54-5.92,53.44,5.73,67.09c2.28,2.64,5.19,3.89,8.45,3.76l5.14,0.04 c1.49-0.14,3.24-0.13,5.3-0.11c15.19-0.5,46.33-2.74,87.7-11.06c2.12-0.45,4.38-0.89,6.64-1.34c8.02-1.79,16.51-3.73,25.19-5.98 c2.11-0.45,4.4-1.05,6.53-1.65c58.61-15.29,130.87-42.5,205.65-90.34c0,0,4.71-3.36,8.3-1.63c3.19,1.41,4.95,6.82,5.03,15.91 c0.08,1.54,16.6,156.89-109.73,229.78c-0.8,0.46-83.39,48.55-222.54,44.9l-3.08-0.02l-0.46,0.15 c-0.6,0.15-13.34,4.22-14.53,29.18l13.02,58.83l0.8,0.62c1.06,0.78,27.61,20.55,108.16,10.21 c1.51,13.73,4.66,76.03-51.42,112.76l-48.9,29.23l2.16,2.48l2.2,2.17l47.44-28.16c58.66-38.41,56.66-102.7,55.08-119.21 c-0.25-2.47-0.51-3.86-0.49-4.01l-0.38-2.62l0.02-0.15l-1.05,0.15c-0.15,0-0.29,0-0.46,0.15l-1.05,0.15h-0.29 c-72.55,9.79-101.04-5.37-105.92-8.34L332,698.58l-1.01-4.48c-0.02-0.93,0.09-1.7,0.19-2.47c1.36-14.33,6.86-18.14,8.29-18.9 c142.02,4.14,227.31-45.48,228.12-45.94c130.8-75.48,113.77-235.77,113.64-237c-0.07-11.41-2.79-18.36-8.18-20.87 c-6.77-3.13-14.55,2.2-14.71,2.36c-59.82,38.25-118.12,63.25-168.76,79.36c-2.16,0.76-4.3,1.36-6.46,2.11 c-13.47,4.06-26.29,7.67-38.59,10.66c-2.26,0.45-4.4,1.05-6.52,1.49c-70.24,16.59-116.97,15.78-117.83,15.62h-0.15 c-1.46-0.01-2.85-0.64-4-1.88c-8.5-9.93-6.08-48.29-4.32-62.31c1.46-18.33,4.24-35.58,8.02-51.58 c3.24-13.08,7.11-25.38,11.64-37.06c0.9-2.31,1.8-4.61,2.85-6.92C399.85,163.89,580.5,134.4,582.76,133.95 c74.34-12.24,133.57-3.94,177.38,24.9l0.13,0.16c4.59,2.96,8.99,6.23,13.22,9.66c0.13,0.16,0.28,0.16,0.42,0.16 c2.37,2.02,4.74,4.04,6.94,6.22c2.35,2.18,4.55,4.35,6.63,6.37c34.82,36.64,47.67,84.83,52.44,118.93 c0.11,1.39,0.38,2.62,0.48,4.01c0.11,1.39,0.36,2.78,0.49,4.01c1.05,9.56,1.41,17.74,1.5,23.59c-0.04,1.39,0.09,2.62-0.06,3.7 l-0.02,0.15c0.1,2.47,0,4.32,0,5.4l-0.02,0.15c0.04,0.77-0.02,1.23-0.02,1.23l0.03,0.92c11.74,53.11-33.74,182.72-34.2,183.95 l-1.24,3.69l3.46,0.49c7.92,1.14,4.98,31.48,0.42,52.1c-39.21,45.49-102.56,86.02-103.21,86.48l-1.78,1.22l-1.58,131.78 l-0.02,0.15l-0.1,5.09l3.44-0.44c1.05-0.15,2.1-0.29,3.14-0.44c0,0,0.15,0,0.29,0c39.44-4.95,62.16,2.93,74.8,11.5l2.98-2.44 l2.95-2.29C778.55,804.7,754.81,795.74,712.58,800.67z M483.13,452.75c-13.47,4.06-26.29,7.67-38.59,10.66 c0.14,2.16,0.29,3.24,0.27,3.39c12.3-2.99,25.13-6.6,38.62-10.81C483.45,455.84,483.3,454.76,483.13,452.75z M451.05,757.41 c-0.15,0-0.29,0-0.46,0.15c0.46-0.15,0.9-0.15,1.49-0.14l0.02-0.15L451.05,757.41z M843.97,305.14l-3.07,3.21 c1.05,9.56,1.41,17.74,1.5,23.59l3.12-3.52l0.02-0.15C845.49,322.11,844.94,314.25,843.97,305.14z"/>
        </g>
        <g>
          <path d="M738.91,537.3c-25.1-0.19-40.72-35.74-34.81-79.26s31.12-78.77,56.23-78.58l-0.93,6.82 c-21.51-0.16-43.41,32.05-48.8,71.81s7.72,72.23,29.24,72.38L738.91,537.3z"/>
        </g>
        <g>
          <path d="M438.22,468.42c-0.19-1.95-16.63-196.26,150.08-277.17c4.81-2.06,114.9-48.62,188.05-29.13l-2.41,6.63 c-71.09-18.94-182.6,28.22-183.71,28.7c-161.56,78.41-145.66,267.51-145.48,269.41L438.22,468.42z"/>
        </g>
        <g>
          <path d="M573.46,322.71c-12.32-0.09-23.91,11.69-25.89,26.32s6.38,26.56,18.7,26.65s23.91-11.69,25.89-26.32 C594.15,334.73,585.78,322.8,573.46,322.71z M567.19,368.91c-8.8-0.07-14.65-8.9-13.17-19.83c1.46-10.78,9.71-19.66,18.52-19.59 c8.8,0.07,14.63,9.05,13.17,19.83C584.22,360.25,575.99,368.97,567.19,368.91z"/>
        </g>
        <g>
          <path d="M556.48,385.86c-16.95-0.13-28.51-16.69-25.77-36.93c2.74-20.24,18.77-36.6,35.73-36.48l-0.93,6.82 c-13.37-0.1-26.07,13.23-28.3,29.7c-2.23,16.48,6.82,29.96,20.19,30.06L556.48,385.86z"/>
        </g>
        <g>
          <polygon points="340.2,666.05 322.77,484.72 329.3,483.15 346.74,664.48 &#9;&#9;&#9;&#9;"/>
        </g>
        <g>
          <path d="M483.36,456.03c-0.21-1.66-19.67-166.57,125.05-230.17l1.84,6.24c-139.27,61.21-120.58,220.55-120.37,222.15 L483.36,456.03z"/>
        </g>
        <g>
          <path d="M448.98,764.44l0.56-6.81c0.87-0.05,88.68-5.36,226.52-80.82l2.42,5.95C539.05,759.09,449.86,764.4,448.98,764.44z"/>
        </g>
        <g>
          <polygon points="331.34,327.71 331.88,320.9 456.21,314.33 455.66,321.15 &#9;&#9;&#9;&#9;"/>
        </g>
        <g>
          <polygon points="427.15,629.93 417.31,472.99 423.86,471.64 433.7,628.58 &#9;&#9;&#9;&#9;"/>
        </g>
        <g>
          <polygon points="454.44,551.7 449.1,466.46 455.65,465.12 460.99,550.35 &#9;&#9;&#9;&#9;"/>
        </g>
        <g>
          <path d="M357.08,699.45c-18.29-0.14-29.63-1.15-30.08-1.2l1.46-6.79c1.81,0.15,180.73,16.18,274.52-73.96 c0.65-0.61,62.35-59.86,76.31-148.17l6.48,0.21c-14.39,91.05-78.08,152.09-78.72,152.7 C534.49,691.98,413.16,699.86,357.08,699.45z"/>
        </g>
        <g>
          <path d="M523.98,986.53l-5.43-3.06c0.86-1.42,87.41-142.62,193.9-183.57l1.52,6.37C609.97,846.27,524.82,985.13,523.98,986.53z"/>
        </g>
        <g>
          <linearGradient id="SVGID_6_" gradientUnits="userSpaceOnUse" x1="1058.4814" y1="877.5052" x2="1160.6567" y2="877.5052" gradientTransform="matrix(0.9755 7.246636e-03 0.1389 -1.024 -371.2032 1241.4387)">
            <stop offset="0" style="stop-color:#FF31FF"/>
            <stop offset="0.5146" style="stop-color:#FFFFFF"/>
            <stop offset="1" style="stop-color:#2B81FF"/>
          </linearGradient>
          <polygon class="st4" points="777.75,390.92 890.06,275.08 889.55,302.25 822.73,380.53 821.3,421.19 810.66,427 &#9;&#9;&#9;&#9;"/>
          <g>
            <polygon points="816.24,429.56 812.53,424.49 818.08,419.81 819.5,379.48 886.23,304.56 886.63,283.08 774.26,399 &#10;&#9;&#9;&#9;&#9;&#9;&#9;769.96,394.49 893.48,267.07 892.74,306.59 825.97,381.58 824.52,422.57 &#9;&#9;&#9;&#9;&#9;"/>
          </g>
        </g>
        <linearGradient id="SVGID_7_" gradientUnits="userSpaceOnUse" x1="1017.8114" y1="771.1434" x2="1104.475" y2="771.1434" gradientTransform="matrix(0.9755 7.246636e-03 0.1389 -1.024 -371.2032 1241.4387)">
          <stop offset="0" style="stop-color:#FF31FF"/>
          <stop offset="0.5146" style="stop-color:#FFFFFF"/>
          <stop offset="1" style="stop-color:#2B81FF"/>
        </linearGradient>
        <path class="st5" d="M813.32,459.79c-5.21,38.38-28.35,69.36-51.7,69.18c-23.34-0.17-38.05-31.43-32.84-69.81 s28.35-69.36,51.7-69.18C803.82,390.16,818.52,421.41,813.32,459.79z"/>
        <g>
          <path d="M780.95,386.53c-25.09-0.19-49.93,32.46-55.38,72.65s10.5,72.99,35.6,73.18c25.08,0.19,49.9-32.31,55.35-72.5 C821.97,419.66,806.04,386.71,780.95,386.53z M762.09,525.58c-21.57-0.16-34.99-30.01-30.06-66.35 c4.95-36.5,26.42-65.93,47.98-65.77s35.01,29.86,30.05,66.35C805.14,496.15,783.65,525.74,762.09,525.58z"/>
        </g>
      </g>
    </g>
  </g>
</svg>