<?xml version="1.0" encoding="utf-8"?>
<!-- Generator: Adobe Illustrator 23.0.1, SVG Export Plug-In . SVG Version: 6.00 Build 0)  -->
<svg version="1.1" id="Layer_1" xmlns="http://www.w3.org/2000/svg" xmlns:xlink="http://www.w3.org/1999/xlink" x="0px" y="0px"
	 viewBox="0 0 1024 1024" style="enable-background:new 0 0 1024 1024;" xml:space="preserve">
<style type="text/css">
	.st0{fill:#2D0A2D;}
	.st1{fill:#FFFFFF;}
	.st2{opacity:0.36;fill:url(#SVGID_1_);}
	.st3{fill:url(#SVGID_2_);}
	.st4{opacity:0.36;fill:url(#SVGID_3_);}
	.st5{opacity:0.4;fill:url(#SVGID_4_);}
	.st6{opacity:0.65;fill:url(#SVGID_5_);}
	.st7{opacity:0.65;fill:url(#SVGID_6_);}
	.st8{fill:#0E0B09;}
	.st9{opacity:0.4;fill:url(#SVGID_7_);}
	.st10{fill:url(#SVGID_8_);}
	.st11{opacity:0.2;fill:url(#SVGID_9_);}
	.st12{opacity:0.2;fill:url(#SVGID_10_);}
	.st13{opacity:0.2;fill:url(#SVGID_11_);}
	.st14{opacity:0.2;fill:url(#SVGID_12_);}
	.st15{opacity:0.2;fill:url(#SVGID_13_);}
	.st16{fill:url(#SVGID_14_);}
</style>
<g>
	<circle class="st0" cx="512" cy="512.14" r="31.61"/>
</g>
<g>
	<path class="st0" d="M1024,512c0,186.19-99.39,349.17-248.01,438.78c-0.01,0.01-0.02,0.02-0.04,0.02
		c-3.12,1.89-6.27,3.74-9.44,5.56C691.54,999.39,604.64,1024,512,1024c-89.3,0-173.27-22.86-246.35-63.07
		c-3.74-2.04-7.44-4.14-11.12-6.29C102.3,865.91,0,700.9,0,512c0-88.13,22.27-171.06,61.49-243.47
		c27.54-50.87,63.45-96.54,105.88-135.18c0.17-0.16,0.33-0.31,0.5-0.46c7.45-6.76,15.09-13.31,22.93-19.62
		C278.64,42.41,390.37,0,512,0c85.7,0,166.48,21.05,237.45,58.27c4.49,2.36,8.95,4.78,13.36,7.27
		c42.99,24.2,82.14,54.43,116.28,89.55C968.77,247.31,1024,373.2,1024,512z"/>
	<g>
		<path class="st1" d="M775.95,950.8c-3.12,1.89-6.27,3.74-9.44,5.56C691.54,999.39,604.64,1024,512,1024
			c-89.3,0-173.27-22.86-246.35-63.07c-3.74-2.04-7.44-4.14-11.12-6.29c3.76-5.56,7.6-11.13,11.59-16.41
			c3.08-4.37,6.16-8.59,9.07-12.8c0.33-0.16,0.49-0.32,0.49-0.49c3.24-4.37,6.48-8.74,9.72-12.96c6.32-8.42,12.64-16.52,18.8-24.3
			c0.48-0.49,0.81-0.97,1.13-1.46c8.75-11.02,17.18-21.22,24.79-30.14c2.27-2.43,4.21-4.86,6.16-7.12
			c9.72-11.67,17.98-20.91,23.33-26.74c0.97-1.13,1.94-2.1,2.75-3.08l2.6-2.75v-0.16c0.64-0.49,0.97-0.98,1.29-1.3
			c0.16,0,0.16-0.16,0.33-0.32v-0.17h0.16c0.17,0,0.29,0.05,0.42,0.09c0.01,0.01,0.02,0.01,0.03,0.01s0.02,0.01,0.03,0.01
			c0.1,0.03,0.2,0.06,0.33,0.06h0.07l0.21,0.04c0.07,0.01,0.15,0.03,0.23,0.06c0.02,0.01,0.04,0.02,0.07,0.02
			c0.16,0.06,0.34,0.13,0.55,0.2c0.33,0,0.65,0.16,0.97,0.16c0.33,0,0.81,0.16,1.14,0.16c0.81,0.17,1.62,0.33,2.59,0.49
			c0.1,0,0.19,0,0.29,0.01h0.01c0.22,0,0.45,0.04,0.67,0.15c0.5,0,0.93,0.06,1.39,0.11h0.04c0.27,0.03,0.54,0.05,0.84,0.05
			l0.81,0.17c0.65,0,1.46,0.16,2.27,0.16c1.46,0.16,3.08,0.16,4.86,0.32h0.32c2.43,0.16,4.87,0.33,7.46,0.33c0,0,0,0,0.06,0h0.1
			c4.37,0.16,9.07,0.32,14.1,0.16c12.63-0.16,27.22-0.65,42.93-1.46c3.08-0.16,6.32-0.32,9.56-0.65c3.08-0.16,6.48-0.32,9.72-0.65
			c6.16-0.32,12.48-0.81,18.96-1.29c24.3-1.78,49.74-4.05,74.04-6.48c10.21-1.14,20.26-2.11,29.98-3.08
			c3.08-0.32,6.32-0.65,9.56-0.97c38.25-4.2,70.06-8.07,84.88-9.87c0.06-0.01,0.12-0.01,0.18-0.02c1.62-0.32,3.08-0.48,4.38-0.48
			c1.78-0.33,3.07-0.49,3.72-0.49c0.02,0,0.04-0.01,0.06-0.01h0.01c0.01-0.01,0.03-0.01,0.05-0.02c0.01,0,0.03,0,0.04-0.01
			c0.11-0.04,0.22-0.08,0.33-0.12h0.16c0.01,0.02,0.02,0.03,0.03,0.05c1.61,2.25,3.22,4.51,4.67,6.59
			c7.61,10.7,14.58,21.07,20.74,31.11c3.89,6,7.45,11.99,10.85,17.99c5.51,9.39,10.37,18.47,14.91,27.22
			c2.43,5.18,4.86,10.2,7.13,15.06c2.43,5.35,4.7,10.7,6.97,15.88c1.13,2.76,2.26,5.35,3.07,7.78c1.95,5.02,3.73,10.04,5.51,14.9
			c1.62,4.87,3.08,9.73,4.54,14.26c0.81,2.43,1.46,4.86,2.11,7.29C775.77,950.09,775.86,950.45,775.95,950.8z"/>
		<linearGradient id="SVGID_1_" gradientUnits="userSpaceOnUse" x1="254.53" y1="907.8" x2="775.99" y2="907.8">
			<stop  offset="0" style="stop-color:#FF00FF"/>
			<stop  offset="0" style="stop-color:#FF00FF"/>
			<stop  offset="0.0859" style="stop-color:#FE32FE"/>
			<stop  offset="0.2148" style="stop-color:#FC78FC"/>
			<stop  offset="0.3311" style="stop-color:#FAAFFA"/>
			<stop  offset="0.4306" style="stop-color:#F9D7F9"/>
			<stop  offset="0.5094" style="stop-color:#F8EFF8"/>
			<stop  offset="0.5577" style="stop-color:#F8F8F8"/>
			<stop  offset="0.6056" style="stop-color:#F8F3F8"/>
			<stop  offset="0.6612" style="stop-color:#F9E5F9"/>
			<stop  offset="0.7206" style="stop-color:#F9CEF9"/>
			<stop  offset="0.7827" style="stop-color:#FAADFA"/>
			<stop  offset="0.847" style="stop-color:#FB83FB"/>
			<stop  offset="0.913" style="stop-color:#FD50FD"/>
			<stop  offset="0.9792" style="stop-color:#FE14FE"/>
			<stop  offset="1" style="stop-color:#FF00FF"/>
		</linearGradient>
		<path class="st2" d="M775.99,950.78c-0.01,0.01-0.02,0.02-0.04,0.02c-3.12,1.89-6.27,3.74-9.44,5.56
			C691.54,999.39,604.64,1024,512,1024c-89.3,0-173.27-22.86-246.35-63.07c-3.74-2.04-7.44-4.14-11.12-6.29
			c3.76-5.56,7.6-11.13,11.59-16.41c3.08-4.37,6.16-8.59,9.07-12.8c0.33-0.16,0.49-0.32,0.49-0.49c3.24-4.37,6.48-8.74,9.72-12.96
			c6.32-8.42,12.8-16.52,18.8-24.3c0.48-0.49,0.81-0.97,1.13-1.46c5.83-7.13,11.34-13.93,16.53-20.25c0.16,0,0.16-0.16,0.16-0.16
			c0.65-0.81,1.13-1.3,1.62-1.95c2.27-2.59,4.37-5.18,6.48-7.78c2.27-2.43,4.21-4.86,6.16-7.12c9.88-11.67,17.98-20.74,23.33-26.74
			c0.97-1.13,1.94-2.1,2.75-3.08l2.6-2.75v-0.16c0.64-0.49,0.97-0.98,1.29-1.3c0.16,0,0.16-0.16,0.33-0.32c0.02,0,0.03,0,0.04-0.02
			c0,0,0.01,0.01,0.01,0c0.08-0.01,0.1-0.09,0.1-0.13c0.01-0.01,0.01-0.02,0.01-0.02c0.17,0,0.29,0.05,0.42,0.09
			c0.01,0.01,0.02,0.01,0.03,0.01s0.02,0.01,0.03,0.01c0.1,0.03,0.2,0.06,0.33,0.06h0.01c0.03,0,0.06,0,0.1,0.01l0.17,0.03
			c0.07,0.01,0.15,0.03,0.23,0.06c0.02,0.01,0.04,0.02,0.07,0.02c0.16,0.06,0.34,0.13,0.55,0.2c0.33,0,0.65,0.16,0.97,0.16
			c0.33,0,0.81,0.16,1.14,0.16c0.33,0.09,0.69,0.13,1.07,0.17c0.03,0,0.05,0,0.07,0.01c0.06,0,0.11,0.01,0.17,0.02
			c0.32,0.02,0.64,0.06,0.96,0.13h0.65c0.48,0.16,0.97,0.16,1.62,0.16c1.29,0.16,2.91,0.49,4.37,0.65c1.46,0.16,3.08,0.16,4.86,0.32
			h0.32c2.43,0.16,4.87,0.33,7.46,0.33c0,0,0,0,0.06,0h0.1c4.37,0.16,9.07,0.32,14.1,0.16c12.63-0.16,27.22-0.65,42.93-1.46
			c3.08-0.16,6.32-0.49,9.56-0.65c3.08-0.16,6.48-0.32,9.72-0.65c6.16-0.32,12.48-0.81,18.96-1.29c24.3-1.78,49.74-4.05,74.04-6.48
			c10.21-0.97,20.26-2.11,29.98-3.08c3.08-0.32,6.32-0.65,9.56-0.97c37.86-4.03,69.32-7.74,84.32-9.69
			c0.09-0.01,0.17-0.02,0.25-0.03c0,0,0,0,0.11,0h0.06c1.94-0.33,3.4-0.49,4.7-0.65c1.15-0.14,2.04-0.29,2.8-0.32h0.01
			c0.09-0.01,0.18-0.01,0.26-0.01c0.08,0,0.19,0,0.31-0.02c0,0,0.01,0,0.02,0c0.08-0.01,0.16-0.03,0.22-0.09
			c0.01,0,0.02-0.01,0.03-0.01c0.02,0,0.04-0.01,0.06-0.03c0.01,0,0.01,0,0.01-0.01c0.02,0,0.04-0.01,0.06-0.01
			c0.04-0.01,0.07-0.02,0.1-0.03c0.11-0.04,0.22-0.08,0.33-0.12h0.16c0.01,0.02,0.02,0.03,0.03,0.05c1.61,2.25,3.22,4.51,4.67,6.59
			c7.61,10.7,14.58,21.07,20.74,31.11c3.89,6,7.45,11.99,10.85,17.99c5.51,9.39,10.37,18.47,14.91,27.22
			c2.59,5.18,5.02,10.2,7.13,15.06c2.59,5.51,4.86,10.7,6.97,15.88c1.13,2.76,2.26,5.35,3.07,7.78c1.95,5.02,3.73,10.04,5.51,14.9
			c1.62,4.87,3.08,9.73,4.54,14.26c0.81,2.43,1.46,4.86,2.11,7.29C775.8,950.08,775.9,950.43,775.99,950.78z"/>
		<path class="st1" d="M775.99,950.78c-0.01,0.01-0.02,0.02-0.04,0.02c-3.12,1.89-6.27,3.74-9.44,5.56
			c-26-93.81-83.25-155.27-86.9-159.25c-0.03-0.03-0.05-0.05-0.07-0.07c-0.1-0.09-0.1-0.09-0.1-0.09c0.12-0.06,0.24-0.12,0.36-0.16
			c0.05-0.02,0.09-0.04,0.14-0.05c0.48-0.2,0.93-0.33,1.29-0.44h0.16l1.91-0.67c0.07-0.02,0.13-0.04,0.2-0.07l4.02-1.41
			c0.08-0.02,0.15-0.05,0.22-0.08l6.12-2.15c0.08,0,0.19,0,0.31-0.02c0,0,0.01,0,0.02,0c0.08-0.01,0.16-0.03,0.22-0.09
			c0.01,0,0.02-0.01,0.03-0.01c0.02,0,0.04-0.01,0.06-0.03c0.01,0,0.01,0,0.01-0.01c0.02,0,0.04-0.01,0.06-0.01
			c0.04-0.01,0.07-0.02,0.1-0.03c0.11-0.04,0.22-0.08,0.33-0.12h0.16c0.01,0.02,0.02,0.03,0.03,0.05c1.61,2.25,3.22,4.51,4.67,6.59
			c7.61,10.7,14.58,21.07,20.74,31.11c3.89,6,7.45,11.99,10.85,17.99c5.51,9.39,10.37,18.47,14.91,27.22
			c2.59,5.18,5.02,10.2,7.13,15.06c2.59,5.51,4.86,10.7,6.97,15.88c1.13,2.76,2.26,5.35,3.07,7.78c1.95,5.02,3.73,10.04,5.51,14.9
			c1.62,4.87,3.08,9.73,4.54,14.26c0.81,2.43,1.46,4.86,2.11,7.29C775.8,950.08,775.9,950.43,775.99,950.78z"/>
		<linearGradient id="SVGID_2_" gradientUnits="userSpaceOnUse" x1="679.44" y1="873.98" x2="775.99" y2="873.98">
			<stop  offset="0" style="stop-color:#FF00FF;stop-opacity:0.2"/>
			<stop  offset="0.412" style="stop-color:#FD46FD;stop-opacity:0.4245"/>
			<stop  offset="0.6835" style="stop-color:#FB9FFB;stop-opacity:0.6902"/>
			<stop  offset="0.8988" style="stop-color:#F9DFF9;stop-opacity:0.901"/>
			<stop  offset="1" style="stop-color:#F8F8F8"/>
		</linearGradient>
		<path class="st3" d="M775.99,950.78c-0.01,0.01-0.02,0.02-0.04,0.02c-3.12,1.89-6.27,3.74-9.44,5.56
			c-26-93.81-83.25-155.27-86.9-159.25c-0.03-0.03-0.05-0.05-0.07-0.07c-0.1-0.09-0.1-0.09-0.1-0.09c0.12-0.06,0.24-0.12,0.36-0.16
			c0.05-0.02,0.09-0.04,0.14-0.05c0.48-0.2,0.93-0.33,1.29-0.44h0.16l1.91-0.67c0.07-0.02,0.13-0.04,0.2-0.07l4.02-1.41
			c0.08-0.02,0.15-0.05,0.22-0.08l6.12-2.15c0.08,0,0.19,0,0.31-0.02c0,0,0.01,0,0.02,0c0.08-0.01,0.16-0.03,0.22-0.09
			c0.01,0,0.02-0.01,0.03-0.01c0.02,0,0.04-0.01,0.06-0.03c0.01,0,0.01,0,0.01-0.01c0.02,0,0.04-0.01,0.06-0.01
			c0.04-0.01,0.07-0.02,0.1-0.03c0.11-0.04,0.22-0.08,0.33-0.12h0.16c0.01,0.02,0.02,0.03,0.03,0.05c1.61,2.25,3.22,4.51,4.67,6.59
			c7.61,10.7,14.58,21.07,20.74,31.11c3.89,6,7.45,11.99,10.85,17.99c5.51,9.39,10.37,18.47,14.91,27.22
			c2.59,5.18,5.02,10.2,7.13,15.06c2.59,5.51,4.86,10.7,6.97,15.88c1.13,2.76,2.26,5.35,3.07,7.78c1.95,5.02,3.73,10.04,5.51,14.9
			c1.62,4.87,3.08,9.73,4.54,14.26c0.81,2.43,1.46,4.86,2.11,7.29C775.8,950.08,775.9,950.43,775.99,950.78z"/>
		<path class="st1" d="M971.35,520.21c-141.96-411.97-490.84-372.4-490.84-372.4s-22.96,0-59.06,9.15
			c-36.04,9.08-85.16,27.38-137.48,63.9c-60.33,41.18-122.41,101.57-166.14,189.09c-16.11,32.16-29.67,68.02-39.79,107.87
			c-7.71,30.13-13.18,62.75-16.43,97.69c-0.02,3.03,0.31,7.07,2.14,9.96c20.38,32.99,157.96,230.98,513.3,197.86
			c300.78-55.24,377.61-241.13,392.29-285.87C969.34,537.43,974.14,527.08,971.35,520.21z"/>
		<linearGradient id="SVGID_3_" gradientUnits="userSpaceOnUse" x1="61.5383" y1="486.8923" x2="972.2385" y2="486.8923">
			<stop  offset="0" style="stop-color:#FF00FF"/>
			<stop  offset="0" style="stop-color:#FF00FF"/>
			<stop  offset="0.0111" style="stop-color:#FF0BFF"/>
			<stop  offset="0.0735" style="stop-color:#FD42FD"/>
			<stop  offset="0.1379" style="stop-color:#FC72FC"/>
			<stop  offset="0.2032" style="stop-color:#FB9BFB"/>
			<stop  offset="0.2694" style="stop-color:#FABDFA"/>
			<stop  offset="0.3369" style="stop-color:#F9D7F9"/>
			<stop  offset="0.4061" style="stop-color:#F8E9F8"/>
			<stop  offset="0.4782" style="stop-color:#F8F4F8"/>
			<stop  offset="0.5577" style="stop-color:#F8F8F8"/>
			<stop  offset="0.5983" style="stop-color:#F8F1F8"/>
			<stop  offset="0.6553" style="stop-color:#F9DFF9"/>
			<stop  offset="0.7221" style="stop-color:#FAC1FA"/>
			<stop  offset="0.7963" style="stop-color:#FB97FB"/>
			<stop  offset="0.8766" style="stop-color:#FC61FC"/>
			<stop  offset="0.9608" style="stop-color:#FE21FE"/>
			<stop  offset="1" style="stop-color:#FF00FF"/>
		</linearGradient>
		<path class="st4" d="M969.38,537.52c-12.55,38.04-70.49,179.21-274.22,254.14h-0.2c-0.19,0-0.58,0.19-1.16,0.19
			c-0.58,0.19-1.16,0.39-1.74,0.58c-3.48,1.35-7.15,2.7-10.82,3.86c-0.58,0.19-1.16,0.39-1.74,0.58
			c-30.9,10.62-65.08,19.51-102.55,26.46c-65.86,5.99-124.18,4.44-175.74-3.09c-5.79-0.77-11.59-1.74-17.38-2.7
			c-3.67-0.39-7.34-1.16-10.82-1.93c-0.77-0.19-1.55-0.19-2.32-0.39c-1.55-0.19-2.7-0.58-4.05-0.77c-12.94-2.51-25.3-5.41-37.27-8.5
			c-0.2,0-0.58-0.19-0.77-0.19c-0.58-0.19-0.97-0.39-1.55-0.58c-5.21-1.35-10.24-2.9-15.26-4.44c-5.02-1.35-10.04-2.9-14.87-4.63
			c-4.44-1.35-8.88-2.9-13.14-4.44c-11-4.06-21.43-8.31-31.48-12.75c-5.4-2.32-10.62-4.63-15.64-7.15c-1.93-0.97-3.86-1.93-5.79-2.9
			c-4.05-1.93-7.92-3.86-11.78-5.99h-0.2c-2.12-1.16-4.05-2.12-5.99-3.28c-0.77-0.58-1.74-0.97-2.7-1.55
			c-1.55-0.77-3.09-1.54-4.45-2.51c-7.91-4.63-15.63-9.27-22.98-13.9c-59.1-38.43-93.85-80.14-110.27-103.13
			c-0.19-0.39-0.39-0.58-0.58-0.97c-2.13-2.7-3.67-5.02-5.03-7.15v-0.19c-0.19-0.19-0.58-0.77-0.77-1.16h-0.19
			c-0.58-0.77-0.97-1.54-1.35-2.32v-0.19c-0.2-0.39-0.58-0.77-0.97-1.16c-0.19-0.39-0.58-0.97-0.77-1.35
			c-0.96-2.51-1.35-5.6-1.35-7.92c0.39-3.86,0.77-7.53,1.16-11.39c0.19-1.54,0.19-2.9,0.58-4.44c0.2-1.74,0.2-3.48,0.58-5.21
			c0-1.16,0.19-2.12,0.39-3.28c0-0.58,0-1.35,0.19-1.93c0.97-6.95,1.93-13.71,2.89-20.28c2.13-13.13,4.64-26.07,7.53-38.43
			c0.58-2.51,1.16-5.02,1.74-7.53c0.39-1.93,0.77-3.86,1.36-5.79c10.23-39.78,23.75-75.7,39.97-107.95
			c11.78-23.56,24.91-45.19,39.01-64.89c37.85-53.69,82.85-94.05,127.07-124.17c52.33-36.5,101.39-54.85,137.5-63.92
			c36.11-9.08,59.1-9.08,59.1-9.08s253.17-28.77,415.97,217.64c0,0.19,0,0.19,0,0.19c0.77,0.97,1.55,1.93,2.13,3.09
			c5.21,7.73,10.04,15.64,14.67,23.75c2.51,4.06,4.83,8.11,7.15,12.36c4.63,8.5,9.27,17.19,13.71,26.26
			c13.52,27.04,26.07,56.58,37.08,89.03C974.21,527.09,969.38,537.52,969.38,537.52z"/>
		<path class="st1" d="M614.7,450.96c0,0-1.16-121.54,83.5-138.93c0,0,90.38-21.49,133.03,56.8c0,0-13.73,88.28-90.78,106.48
			C740.45,475.31,698.2,493.06,614.7,450.96z"/>
		<path class="st1" d="M196.24,431.8c0,0,50.84-89.75,127.38-81.28c0,0,89.4-12.77,120.03,125.22c0,0-52.59,50.44-124.29,49.76
			C319.36,525.5,222.52,508.66,196.24,431.8z"/>
		<linearGradient id="SVGID_4_" gradientUnits="userSpaceOnUse" x1="559.4012" y1="588.3613" x2="564.9482" y2="666.6357">
			<stop  offset="0" style="stop-color:#FF00FF"/>
			<stop  offset="0.4157" style="stop-color:#FF02FF"/>
			<stop  offset="0.5654" style="stop-color:#FF09FF"/>
			<stop  offset="0.6721" style="stop-color:#FF14FF"/>
			<stop  offset="0.7585" style="stop-color:#FF25FF"/>
			<stop  offset="0.8324" style="stop-color:#FF3BFF"/>
			<stop  offset="0.8979" style="stop-color:#FF57FF"/>
			<stop  offset="0.9556" style="stop-color:#FF76FF"/>
			<stop  offset="1" style="stop-color:#FF94FF"/>
		</linearGradient>
		<path class="st5" d="M520.55,605.17c0,0,15.25,58.04,51.22,66.93c0,0,27.33-33.19,28.17-76.71c0,0-16.92-9.26-35.98-9.4
			C563.97,586,536.57,588.98,520.55,605.17z"/>
		<linearGradient id="SVGID_5_" gradientUnits="userSpaceOnUse" x1="284.6501" y1="455.3602" x2="398.6368" y2="455.3602">
			<stop  offset="0" style="stop-color:#FF00FF"/>
			<stop  offset="0" style="stop-color:#FF00FF"/>
			<stop  offset="0.0111" style="stop-color:#FF0BFF"/>
			<stop  offset="0.0735" style="stop-color:#FD42FD"/>
			<stop  offset="0.1379" style="stop-color:#FC72FC"/>
			<stop  offset="0.2032" style="stop-color:#FB9BFB"/>
			<stop  offset="0.2694" style="stop-color:#FABDFA"/>
			<stop  offset="0.3369" style="stop-color:#F9D7F9"/>
			<stop  offset="0.4061" style="stop-color:#F8E9F8"/>
			<stop  offset="0.4782" style="stop-color:#F8F4F8"/>
			<stop  offset="0.5577" style="stop-color:#F8F8F8"/>
			<stop  offset="0.5983" style="stop-color:#F8F1F8"/>
			<stop  offset="0.6553" style="stop-color:#F9DFF9"/>
			<stop  offset="0.7221" style="stop-color:#FAC1FA"/>
			<stop  offset="0.7963" style="stop-color:#FB97FB"/>
			<stop  offset="0.8766" style="stop-color:#FC61FC"/>
			<stop  offset="0.9608" style="stop-color:#FE21FE"/>
			<stop  offset="1" style="stop-color:#FF00FF"/>
		</linearGradient>
		<path class="st6" d="M318.27,522.56c-19.56-11.02-33.31-35.37-33.61-63.71c-0.42-39,24.77-70.92,56.26-71.28
			c31.49-0.3,57.29,31.07,57.71,70.07c0.24,20.95-6.9,39.91-18.53,52.99C357.52,527.17,318.27,522.56,318.27,522.56z"/>
		<linearGradient id="SVGID_6_" gradientUnits="userSpaceOnUse" x1="651.9078" y1="414.4688" x2="757.4523" y2="414.4688">
			<stop  offset="0" style="stop-color:#FF00FF"/>
			<stop  offset="0" style="stop-color:#FF00FF"/>
			<stop  offset="0.0111" style="stop-color:#FF0BFF"/>
			<stop  offset="0.0735" style="stop-color:#FD42FD"/>
			<stop  offset="0.1379" style="stop-color:#FC72FC"/>
			<stop  offset="0.2032" style="stop-color:#FB9BFB"/>
			<stop  offset="0.2694" style="stop-color:#FABDFA"/>
			<stop  offset="0.3369" style="stop-color:#F9D7F9"/>
			<stop  offset="0.4061" style="stop-color:#F8E9F8"/>
			<stop  offset="0.4782" style="stop-color:#F8F4F8"/>
			<stop  offset="0.5577" style="stop-color:#F8F8F8"/>
			<stop  offset="0.5983" style="stop-color:#F8F1F8"/>
			<stop  offset="0.6553" style="stop-color:#F9DFF9"/>
			<stop  offset="0.7221" style="stop-color:#FAC1FA"/>
			<stop  offset="0.7963" style="stop-color:#FB97FB"/>
			<stop  offset="0.8766" style="stop-color:#FC61FC"/>
			<stop  offset="0.9608" style="stop-color:#FE21FE"/>
			<stop  offset="1" style="stop-color:#FF00FF"/>
		</linearGradient>
		<path class="st7" d="M679.03,473.51c0,0,24.59,10.33,57.78,1.03l0.06-0.06c15.69-13.63,23.92-38.82,19.32-65.53
			c-6.36-36.82-34.52-62.74-62.98-57.84c-28.4,4.91-46.33,38.7-40.03,75.58C656.56,446.5,666.31,463.15,679.03,473.51l0.06,0.06
			L679.03,473.51z"/>
		<path class="st1" d="M284.06,220.88c0,0-66.49-90.23-221.39-122.56c0,0-1.24-19.56,55.59-4.72c0,0,152.55,35.06,235.18,86.91
			C353.44,180.51,308.57,203.4,284.06,220.88z"/>
		<path class="st1" d="M284.06,220.89l0,0.02c-60.3,41.2-122.41,101.56-166.14,189.09l-0.05,0.05
			C19.68,254.62,62.67,98.32,62.67,98.32C211.91,126.29,284.06,220.89,284.06,220.89z"/>
		<g>
			<path class="st0" d="M831.23,368.83c0,0-43.61,173.06-214.2,80.04v3.45c0,0,63.94,48.63,136.77,21.42
				c0,0,65.71-27.31,80.24-88.54l-4.09-1.08L831.23,368.83L831.23,368.83z"/>
		</g>
		
			<ellipse transform="matrix(0.9855 -0.1694 0.1694 0.9855 -60.4368 125.1502)" class="st8" cx="703.04" cy="416.68" rx="37.93" ry="48.83"/>
		<g>
			<path class="st0" d="M838.39,376.22c0,0-72.91-82.23-146.94-59.5c0,0-70.69,16.16-74.43,135.59c0,0-7.02,2.54-4.17-8.18
				c0,0-10.72-139.98,116.08-151.38c0,0,89.41-0.97,127.48,61.9c0,0-11.71-8.66-24.51-16.25c0,0,14.7,16.16,20.2,30.79
				c0,0-17.89-22.29-27.69-27.27C824.41,341.92,839.79,357.07,838.39,376.22z"/>
		</g>
		<path class="st1" d="M870.7,329.21c-53.37-68.17-113.83-111.11-170.94-138.04c-27.67-13.04-54.54-22.33-79.46-28.92l-0.02-0.02
			c0,0,56.02-51.91,111.37-90.47c0,0,31.12-22.14,57.5-48.28c7.52-7.45,16.5-26.7,22.64-20.4C811.8,3.09,924.74,132,870.7,329.21z"
			/>
		<path class="st1" d="M789.16,23.48C768.6,63.18,736.6,98.31,736.6,98.31c-35.58,45.34-36.84,92.86-36.84,92.86
			c-27.67-13.04-54.54-22.33-79.46-28.92l-0.02-0.02c0,0,56.02-51.91,111.37-90.47C731.66,71.76,762.79,49.62,789.16,23.48z"/>
		<path class="st1" d="M519.65,606.66c0,0,0.13,14.83,13.8,22.39c0,0,5.14-20.66,0.2-30.28L519.65,606.66z"/>
		<path class="st1" d="M579.05,592.32c0,0,8.48,17.07,14.15,26.1c0,0,7.84-8.57,8.48-24.26L579.05,592.32z"/>
		<g>
			<path class="st0" d="M514.21,607.84c0,0,21.58,55.65,53.04,64.71c0,0,7.74,2.31,16.14-11.53s18.15-39.48,21.43-65.62h-4.89
				c0,0-11.44,64.46-31.21,70.39c0,0-8.73,2.64-23.06-15.48c0,0-19.77-26.03-25.12-45.14l-7.16,2.74L514.21,607.84z"/>
		</g>
		<linearGradient id="SVGID_7_" gradientUnits="userSpaceOnUse" x1="556.2321" y1="516.6282" x2="559.9301" y2="547.4449">
			<stop  offset="0" style="stop-color:#FF00FF"/>
			<stop  offset="0.2189" style="stop-color:#FF1CFF"/>
			<stop  offset="0.6878" style="stop-color:#FF62FF"/>
			<stop  offset="1" style="stop-color:#FF94FF"/>
		</linearGradient>
		<path class="st9" d="M531.78,523.14c0,0,17.9-17.19,49.8-5.52c0,0-12.03,19.14-23.67,28.36
			C557.92,545.98,534.85,535,531.78,523.14z"/>
		<path class="st8" d="M531.78,523.14c0,0,7.91,8.13,13.62,11.42c0,0,9.88,7.03,12.52,11.42c0,0-9.88-5.71-15.81-10.1
			C542.1,535.88,535.87,533.1,531.78,523.14z"/>
		<path class="st8" d="M561.65,544.22c0,0,13.51-21.74,19.93-26.6c0,0,1.73,2.06-2.97,8.15
			C578.62,525.77,572.03,535.74,561.65,544.22z"/>
		<g>
			<g>
				<path class="st0" d="M196.24,431.8c0,0,80.52,169.35,245.38,41.64l0.86,3.73c0,0-59.09,62-142.59,47.79
					c0,0-75.87-15.67-103.47-75.82l4.17-1.88L196.24,431.8L196.24,431.8z"/>
			</g>
			
				<ellipse transform="matrix(0.9999 -0.0108 0.0108 0.9999 -4.901 3.7238)" class="st8" cx="343.2" cy="456.77" rx="41.38" ry="50.99"/>
			<g>
				<path class="st0" d="M190,440.74c0,0,62.14-98.21,146.04-88.81c0,0,79.03,3.27,106.44,125.24c0,0,8.03,1.29,2.88-9.19
					c0,0-15.92-145.8-154.24-133.6c0,0-96.15,15.86-124.68,87.61c0,0,10.87-11.11,23.12-21.31c0,0-12.61,19.37-15.65,35.43
					c0,0,14.83-26.26,24.37-33.23C198.29,402.87,184.76,421.33,190,440.74z"/>
			</g>
			<g>
				<path class="st0" d="M338.87,376.01c-40.28,0.32-72.82,35.71-73.4,79.37v2.29c0,9.56,1.62,18.63,4.54,27.06v0.16
					c4.03,11.76,10.44,22.23,18.63,30.62l0.01,0.01c0.05,0.05,0.1,0.1,0.15,0.15c0.49,0.65,0.98,0.98,1.46,1.46l0.12,0.12l1.02,1.02
					c0,0,10.2,5.34,26.89,7.12c0.33,0.17,0.81,0.17,1.14,0.17c14.06,1.29,32.82,0,54.16-9.03c0.04-0.02,0.08-0.03,0.12-0.05
					c0.03,0,0.06-0.01,0.08-0.02c0.01,0,0.01,0,0.01,0c0.08-0.05,0.11-0.14,0.23-0.14c9.07-4.05,18.96-9.56,28.84-16.85
					c0.12-0.24,0.24-0.4,0.37-0.6c0.03-0.07,0.07-0.13,0.11-0.21c6.97-12.31,10.86-27.06,10.7-42.61
					C413.56,411.33,379.86,375.52,338.87,376.01z M323.09,391.32c0.03-0.01,0.05-0.03,0.08-0.04c0.26-0.12,0.52-0.24,0.79-0.37h0.17
					c1.29-0.48,2.43-0.97,3.72-1.13c1.14-0.32,2.11-0.65,3.24-0.97c0.44-0.14,0.91-0.26,1.38-0.35c0.21-0.04,0.43-0.08,0.63-0.11
					c0.06-0.01,0.12-0.02,0.17-0.03c0.35-0.06,0.7-0.11,1.06-0.16c0.12-0.04,0.25-0.07,0.37-0.09c0.09-0.02,0.18-0.03,0.27-0.04
					c0.27-0.03,0.55-0.03,0.82-0.03c0.41-0.08,0.82-0.15,1.24-0.22c0.02,0,0.04,0,0.06-0.01c1.25-0.17,2.57-0.26,3.89-0.26
					c1.01,0,2.01,0.05,3.02,0.14h0.06c0.05,0,0.1,0.01,0.15,0.01c0.03-0.01,0.06,0,0.08,0c0.31,0.02,0.61,0.04,0.92,0.07
					c0.03,0,0.07,0.01,0.1,0.01c0.34,0.02,0.67,0.06,1.01,0.1h0.08c0.16,0.01,0.3,0.03,0.43,0.05c0.01,0,0.02,0,0.03,0.01
					c0.24,0.04,0.47,0.1,0.76,0.1c0.03,0,0.06,0,0.09,0.01h0.04c0.09,0,0.18,0.02,0.28,0.04c0.01,0,0.03,0.01,0.04,0.01
					c0.24,0.04,0.49,0.1,0.68,0.1h0.17c0.48,0,0.81,0.16,1.13,0.16c0.82,0.18,1.64,0.38,2.45,0.6c0.06,0.02,0.13,0.03,0.19,0.05
					c0.58,0.14,1.15,0.3,1.71,0.46c0.38,0.11,0.76,0.22,1.14,0.34c0.39,0.11,0.77,0.22,1.15,0.34c1.47,0.53,2.83,1.06,4.16,1.69
					c0.24,0.11,0.48,0.22,0.71,0.34h0.01c0.05,0.02,0.09,0.05,0.14,0.07c0.21,0.09,0.42,0.19,0.62,0.29
					c0.38,0.18,0.75,0.36,1.12,0.56c0.42,0.22,0.85,0.44,1.27,0.68c0.46,0.24,0.91,0.49,1.37,0.74c0.16,0.12,0.33,0.23,0.48,0.34
					c0.23,0.14,0.44,0.27,0.65,0.4l0.06,0.03c0.22,0.12,0.42,0.24,0.59,0.36c0.5,0.25,1,0.59,1.42,0.99c0.01,0,0.02,0.01,0.03,0.02
					s0.03,0.02,0.04,0.03c0.1,0.07,0.2,0.17,0.29,0.26c0.27,0.17,0.55,0.35,0.82,0.54c0.11,0.08,0.23,0.15,0.34,0.24
					c2.17,1.48,4.21,3.29,6.14,5.21c0.01,0.01,0.03,0.03,0.04,0.05c0,0,0-0.01,0.01,0c1.6,1.6,3.2,3.22,4.64,5.14
					c1.27,1.55,2.48,3.2,3.63,4.93c0.18,0.26,0.36,0.53,0.53,0.8c0.31,0.49,0.63,0.98,0.93,1.48c0.94,1.54,1.84,3.14,2.69,4.78
					c1.14,2.11,2.11,4.37,3.08,6.64c0.12,0.27,0.22,0.54,0.33,0.81c0.29,0.75,0.6,1.49,0.87,2.25l0.01,0.01
					c0.06,0.18,0.13,0.36,0.19,0.53c0.2,0.58,0.38,1.19,0.57,1.78c0.16,0.52,0.32,1.05,0.46,1.59c0.16,0.16,0.16,0.32,0.16,0.65
					c0.33,1.13,0.65,2.27,0.97,3.56c0.33,1.14,0.65,2.43,0.81,3.73c0.33,1.13,0.49,2.27,0.65,3.4c0.14,0.64,0.26,1.27,0.35,1.91
					c0,0.03,0.01,0.06,0.01,0.09c0,0.02,0.01,0.04,0.01,0.06c0.11,0.77,0.19,1.55,0.28,2.32c0.32,2.75,0.49,5.5,0.49,8.26v0.65
					c0,0.77-0.01,1.52-0.04,2.26c0,0.37-0.01,0.73-0.03,1.09c0,0.09-0.01,0.19-0.01,0.28c0,0.04,0,0.09-0.01,0.13
					c-0.08,1.67-0.21,3.3-0.4,4.99c-0.16,2.1-0.49,4.37-0.81,6.31c-0.04,0.3-0.09,0.61-0.13,0.91c-0.11,0.65-0.24,1.29-0.37,1.93
					c-0.02,0.08-0.03,0.15-0.05,0.23c-0.01,0.04-0.02,0.09-0.03,0.13c-0.31,1.35-0.67,2.66-1.04,3.93
					c-1.13,4.38-2.59,8.43-4.37,12.32c-0.65,1.46-1.3,3.08-2.11,4.37c0,0.16-0.16,0.16-0.16,0.33c0,0,0,0.16-0.16,0.16
					c-0.82,1.62-1.63,3.24-2.76,4.7c-1.46,2.43-3.24,4.7-5.18,6.96c-0.03,0.05-0.06,0.1-0.1,0.14v0.01
					c-0.29,0.44-0.58,0.86-0.88,1.15c-2.78,2.04-5.82,3.76-9,5.21c-0.46,0.2-0.92,0.4-1.38,0.6c-0.26,0.12-0.53,0.22-0.8,0.33
					c-0.26,0.11-0.52,0.21-0.79,0.32c-0.08,0.03-0.17,0.07-0.25,0.1c-0.41,0.16-0.82,0.32-1.24,0.46c-0.53,0.2-1.07,0.39-1.61,0.57
					c-0.04,0.02-0.09,0.04-0.14,0.05c-0.5,0.17-1,0.33-1.5,0.48c-0.54,0.17-1.09,0.34-1.64,0.49c-20.74,6-43.38,3.38-43.38,3.38
					c-0.61-0.31-1.22-0.68-1.79-1.12c-0.02,0-0.03-0.01-0.05-0.03c-0.3-0.23-0.6-0.48-0.87-0.75c-0.01-0.01-0.03-0.03-0.04-0.04
					c-0.69-0.34-1.36-0.74-2.02-1.17c-0.03-0.02-0.07-0.04-0.1-0.06c-0.16-0.11-0.33-0.22-0.49-0.35c-0.58-0.39-1.16-0.83-1.71-1.3
					c-0.17-0.13-0.34-0.28-0.51-0.43c-0.51-0.44-1.01-0.91-1.49-1.39c-1.3-0.98-2.43-2.11-3.56-3.24c-0.47-0.47-0.78-0.94-1.38-1.4
					c0,0-0.01,0-0.01-0.01l-0.01-0.01c-0.02-0.01-0.03-0.02-0.06-0.04c-0.07-0.08-0.13-0.16-0.2-0.24c-1.56-1.88-3.28-3.9-4.83-6.08
					c-1.13-1.46-2.1-2.92-2.91-4.54c-0.33-0.32-0.49-0.81-0.65-1.13c-0.32-0.33-0.49-0.65-0.65-0.97c-0.81-1.46-1.62-2.92-2.27-4.54
					c-0.16-0.16-0.16-0.32-0.32-0.49c-0.15-0.22-0.28-0.45-0.39-0.69c-0.02-0.02-0.03-0.04-0.04-0.07
					c-0.17-0.33-0.32-0.69-0.46-1.05c-0.01-0.02-0.02-0.04-0.02-0.06c-0.18-0.45-0.35-0.91-0.55-1.37
					c-0.65-1.62-1.29-3.24-1.78-4.86c-0.08-0.16-0.16-0.32-0.23-0.51c-0.06-0.18-0.1-0.38-0.1-0.62c-0.37-0.97-0.72-1.98-1.02-3.02
					c-0.01-0.05-0.03-0.09-0.04-0.14c0-0.01,0-0.01,0-0.02c-0.06-0.2-0.11-0.4-0.16-0.6c-0.08-0.28-0.15-0.56-0.22-0.84
					c-0.04-0.13-0.07-0.26-0.1-0.4c-0.08-0.29-0.14-0.58-0.21-0.88s-0.13-0.6-0.19-0.91c-0.16-0.65-0.31-1.32-0.46-2
					c-0.14-0.68-0.27-1.37-0.39-2.07c-0.24-1.4-0.45-2.82-0.61-4.19c0-0.16,0-0.16,0-0.32c0-0.17,0-0.48-0.15-0.64l-0.01-0.01
					c-0.03-0.24-0.05-0.48-0.08-0.72c-0.03-0.28-0.06-0.56-0.09-0.85v-0.01c0-0.02,0-0.03-0.01-0.05c-0.25-2.43-0.47-4.96-0.47-7.61
					v-0.81c0-1.83,0.07-3.66,0.22-5.49c0.01-0.25,0.04-0.51,0.06-0.77c0.06-0.66,0.13-1.33,0.21-2c0-0.02,0-0.05,0.01-0.07
					c0.16-2.03,0.45-4.19,0.77-6.22c0,0,0-0.01,0-0.01c0.02-0.1,0.03-0.19,0.05-0.29c0.81-4.01,1.77-8.2,3.06-12.04
					c0.65-1.79,1.29-3.73,2.1-5.51c0.81-1.95,1.62-3.73,2.6-5.51c0.81-1.78,1.78-3.4,2.91-5.19c0.97-1.62,2.11-3.24,3.24-4.69
					c1.14-1.46,2.27-2.92,3.57-4.38c1.29-1.46,2.59-2.75,3.89-4.05c1.29-1.13,2.75-2.43,4.05-3.4c1.29-0.97,2.43-1.95,3.72-2.76
					c1.3-0.81,2.59-1.62,3.89-2.27c1.35-0.67,2.7-1.35,4.14-2.02H323.09z"/>
			</g>
		</g>
		<g>
			<path class="st0" d="M773.26,404.52c-2.27-13.61-7.62-25.76-14.91-35.8c-3.37-4.66-6.91-8.52-11.07-12.38
				c-0.04-0.03-0.07-0.07-0.11-0.1h-0.16c-14.91-13.28-34.19-19.93-53.96-16.53c-37.1,6.49-61.24,45.86-54.11,87.98
				c2.59,14.89,8.74,28,17.3,38.85c0.01,0.01,0.02,0.03,0.03,0.04c0.17,0.16,0.17,0.16,0.33,0.32c0,0,4.54,2.43,12.15,5.35
				c0.49,0,0.81,0.16,1.13,0.32c0.09,0,0.19,0.06,0.28,0.11c0.01,0,0.01,0.01,0.02,0.01s0.02,0.01,0.03,0.01
				c0.06,0.01,0.11,0.02,0.16,0.04h0.01c13.61,4.86,35.97,10.2,59.78,5.18c0.16,0,0.48,0,0.81-0.16c1.41-0.16,2.84-0.47,4.41-0.94
				c0.04-0.01,0.08-0.02,0.12-0.03c0.23-0.11,0.54-0.15,0.87-0.22c0.02,0,0.04-0.01,0.06-0.01c0.1-0.03,0.2-0.05,0.3-0.08
				c0.02,0,0.05-0.01,0.07-0.02c0.85-0.28,1.84-0.56,2.83-0.85h0.01c0.14-0.04,0.26-0.08,0.4-0.12c0.32-0.1,0.63-0.21,0.95-0.31
				c0.01,0,0.02-0.01,0.03-0.01c0.16-0.06,0.32-0.1,0.48-0.16c6.32-2.11,12.64-5.19,18.79-9.08c0.65-0.81,1.14-1.62,1.79-2.59
				c0,0,0-0.16,0.16-0.16c0.02-0.03,0.04-0.07,0.06-0.1C772.47,447.05,777.13,426.2,773.26,404.52z M737.75,473.68l-0.01,0.01
				c-0.2,0.2-0.42,0.39-0.64,0.57l-0.04,0.04c-0.08,0.08-0.17,0.15-0.26,0.22c-15.55,4.37-29.16,4.37-39.21,3.24
				c-0.55-0.09-1.05-0.13-1.55-0.18c-0.01,0-0.01,0-0.02,0c-0.38-0.04-0.77-0.08-1.18-0.15c-0.14,0-0.25-0.03-0.35-0.06l-0.01-0.01
				c-0.14-0.04-0.26-0.09-0.45-0.09c-2.11-0.32-4.06-0.64-5.84-1.13c-0.35-0.06-0.71-0.12-1.05-0.18c-0.04-0.01-0.08-0.02-0.12-0.03
				c-0.01,0-0.03,0-0.04-0.01c-0.02,0-0.05-0.01-0.07-0.01c-0.25-0.05-0.48-0.1-0.71-0.17c-0.04-0.01-0.09-0.02-0.13-0.03
				c-0.01,0-0.02-0.01-0.03-0.01h-0.01c-0.21-0.07-0.4-0.13-0.59-0.21h-0.33c-1.13-0.32-2.26-0.65-3.07-0.81
				c-0.33-0.16-0.49-0.16-0.65-0.32c-0.26-0.08-0.51-0.17-0.74-0.25c-0.21-0.09-0.4-0.16-0.56-0.24c-0.1-0.02-0.19-0.04-0.27-0.06
				h-0.01c-0.61-0.14-0.85-0.26-0.85-0.26c-0.16-0.17-0.46-0.33-0.63-0.62v-0.01c-0.01,0-0.01-0.01-0.01-0.01
				c-0.01,0-0.01-0.01-0.01-0.01c-0.03-0.03-0.06-0.05-0.09-0.08h-0.01c-2.08-1.77-4.14-3.84-6.06-5.92
				c-0.16-0.16-0.16-0.16-0.32-0.32c-0.16-0.16-0.16-0.16-0.16-0.32c-0.35-0.3-0.69-0.64-1.02-1l-0.01-0.01
				c-0.19-0.21-0.38-0.42-0.54-0.64c-0.35-0.39-0.67-0.81-1-1.23c-0.04-0.07-0.1-0.14-0.15-0.2c-0.12-0.17-0.24-0.33-0.36-0.49
				l-0.11-0.11c-0.37-0.39-0.74-0.88-1.03-1.38c0-0.01-0.01-0.01-0.01-0.02c-0.06-0.08-0.1-0.18-0.15-0.27
				c-0.17-0.2-0.33-0.41-0.49-0.62c-0.02-0.02-0.03-0.04-0.05-0.06c-0.85-1.12-1.65-2.35-2.39-3.6c-0.02-0.05-0.05-0.1-0.08-0.14
				c-0.3-0.53-0.6-1.05-0.88-1.58c-0.34-0.52-0.66-1.06-0.98-1.6c0-0.01-0.01-0.01-0.01-0.02c-0.01-0.02-0.02-0.03-0.03-0.05
				c-1.05-1.77-2-3.65-2.87-5.62v-0.16c-1.29-2.75-2.26-5.51-3.24-8.42c-0.32-0.98-0.64-2.11-0.81-3.08
				c-0.61-1.82-1.15-3.71-1.59-5.66c-0.03-0.14-0.06-0.29-0.09-0.43c-0.09-0.39-0.17-0.78-0.24-1.17c-0.05-0.26-0.1-0.51-0.14-0.77
				c-0.07-0.4-0.14-0.81-0.2-1.21c-0.33-2.1-0.65-4.21-0.81-6.32c0,0-0.04-0.03-0.07-0.07v-0.01c0-0.01,0-0.01-0.01-0.02l0.01-0.01
				c-0.01-0.01-0.01-0.01,0-0.02c0-0.01,0.01-0.02,0.02-0.02h0.01c0.01-0.01,0.02-0.01,0.04-0.01c0-0.02,0-0.03-0.01-0.04v-0.01
				c-0.19-1.69-0.32-3.28-0.4-4.85v-0.03c0-0.06-0.01-0.13-0.01-0.19v-0.09c-0.02-0.41-0.04-0.83-0.04-1.25
				c-0.02-0.59-0.03-1.19-0.03-1.8c0-0.24,0-0.49,0.01-0.73c-0.01-0.24,0-0.48,0.01-0.72c0.02-1.45,0.07-2.87,0.18-4.27
				c0.02-0.39,0.05-0.78,0.09-1.17c0.01-0.07,0.01-0.14,0.02-0.21c0.01-0.13,0.02-0.26,0.03-0.38c0.01-0.05,0.01-0.1,0.02-0.15
				c0.08-0.76,0.18-1.51,0.29-2.26c0.32-2.43,0.65-5.02,1.29-7.29c0.08-0.73,0.21-1.42,0.37-2.08c0.16-0.67,0.37-1.32,0.61-1.97
				c0-0.16,0-0.27,0.02-0.37c0-0.01,0-0.02,0.01-0.03c0.02-0.09,0.06-0.17,0.13-0.24c0.65-2.11,1.29-4.22,2.1-6.16
				c0.49-1.3,0.81-2.43,1.46-3.57c0.65-1.62,1.46-3.08,2.27-4.53c3.57-6.32,8.1-11.83,13.45-16.04c0.97-0.81,2.11-1.62,3.24-2.43
				c0.53-0.36,1.08-0.72,1.64-1.06c0.1-0.06,0.2-0.13,0.31-0.19c0.27-0.16,0.54-0.32,0.82-0.46c0.33-0.2,0.67-0.38,1.01-0.54
				c0.33-0.18,0.67-0.35,1.01-0.51c0.34-0.17,0.69-0.33,1.04-0.48c0.19-0.09,0.37-0.17,0.56-0.25c0.02-0.01,0.05-0.02,0.07-0.03
				c0.49-0.21,0.97-0.41,1.47-0.6c0.37-0.14,0.75-0.28,1.13-0.42c2.13-0.78,4.35-1.42,6.66-1.78c28.51-4.86,56.54,21.06,63.02,57.84
				c0.81,4.86,1.3,9.72,1.3,14.58c0,2.5-0.14,4.96-0.4,7.39c-0.01,0.09-0.02,0.17-0.03,0.26c0,0.1-0.01,0.19-0.02,0.29
				c-0.28,2.58-0.69,5.12-1.17,7.62c0,0.42-0.13,0.73-0.15,1.13c0,0.01,0,0.01,0,0.02c-0.01,0.04-0.01,0.09-0.01,0.14
				c-0.32,1.85-0.77,3.71-1.37,5.41c-0.01,0.01-0.01,0.01-0.01,0.02c-0.02,0.08-0.05,0.16-0.08,0.24c-0.07,0.25-0.14,0.5-0.21,0.75
				c-0.01,0.02-0.01,0.03-0.02,0.05c-0.01,0.03-0.02,0.07-0.03,0.1c-0.07,0.25-0.15,0.49-0.23,0.74c-0.11,0.34-0.23,0.68-0.34,1.02
				c-0.31,0.87-0.63,1.72-0.95,2.53c-0.08,0.26-0.16,0.52-0.26,0.78c0,0.02-0.01,0.05-0.02,0.07c-0.14,0.4-0.3,0.79-0.48,1.19
				c-0.01,0.03-0.03,0.06-0.05,0.09c-0.19,0.42-0.41,0.85-0.65,1.27c-0.49,1.46-1.3,2.92-2.11,4.38c-1.94,3.56-4.21,6.96-6.64,9.88
				c-1.14,1.29-2.27,2.43-3.4,3.56c-0.03,0.04-0.06,0.08-0.09,0.11c-0.3,0.36-0.59,0.69-0.9,1
				C737.86,473.58,737.81,473.63,737.75,473.68z"/>
		</g>
		<circle class="st1" cx="668.67" cy="430.56" r="19.31"/>
		<circle class="st1" cx="749.13" cy="365.81" r="9.66"/>
		<circle class="st1" cx="279.87" cy="468.26" r="19.31"/>
		<circle class="st1" cx="370.5" cy="395.81" r="9.66"/>
		<linearGradient id="SVGID_8_" gradientUnits="userSpaceOnUse" x1="678.9308" y1="580.8759" x2="972.2385" y2="580.8759">
			<stop  offset="0" style="stop-color:#FF00FF;stop-opacity:0.2"/>
			<stop  offset="0.2365" style="stop-color:#FF02FF;stop-opacity:0.1669"/>
			<stop  offset="0.3767" style="stop-color:#FF0BFF;stop-opacity:0.1472"/>
			<stop  offset="0.4918" style="stop-color:#FE19FE;stop-opacity:0.1311"/>
			<stop  offset="0.5932" style="stop-color:#FE2DFE;stop-opacity:0.1169"/>
			<stop  offset="0.6847" style="stop-color:#FD47FD;stop-opacity:0.1041"/>
			<stop  offset="0.7142" style="stop-color:#FD51FD;stop-opacity:0.1"/>
			<stop  offset="0.8371" style="stop-color:#FB9FFB;stop-opacity:0.4871"/>
			<stop  offset="0.9479" style="stop-color:#F9DFF9;stop-opacity:0.8361"/>
			<stop  offset="1" style="stop-color:#F8F8F8"/>
		</linearGradient>
		<path class="st10" d="M969.38,537.52c-12.55,38.04-70.49,179.21-274.22,254.14h-0.2c-4.24,1.54-8.5,3.09-12.94,4.63h-0.77
			l-2.32-0.19c2.32-0.97,4.64-2.12,6.96-3.28c0,0,0.19,0.19,0.19,0c228.27-103.51,257.24-265.73,257.24-265.73
			c8.68-34.95-40.75-147.93-46.74-161.45c0,0,0,0,0-0.19c0.77,1.16,1.55,2.12,2.13,3.28c5.21,7.73,10.04,15.64,14.67,23.75
			c2.51,4.06,4.83,8.11,7.15,12.36c4.83,8.5,9.46,17.19,13.71,26.26c13.52,27.04,26.07,56.58,37.08,89.03
			C974.21,527.09,969.38,537.52,969.38,537.52z"/>
		<linearGradient id="SVGID_9_" gradientUnits="userSpaceOnUse" x1="229.9393" y1="108.7387" x2="203.6534" y2="144.302">
			<stop  offset="0" style="stop-color:#F8F8F8"/>
			<stop  offset="0.0694" style="stop-color:#F8F1F8"/>
			<stop  offset="0.167" style="stop-color:#F9DFF9"/>
			<stop  offset="0.2813" style="stop-color:#FAC1FA"/>
			<stop  offset="0.4083" style="stop-color:#FB97FB"/>
			<stop  offset="0.5457" style="stop-color:#FC61FC"/>
			<stop  offset="0.6898" style="stop-color:#FE21FE"/>
			<stop  offset="0.7328" style="stop-color:#FF0CFF"/>
			<stop  offset="1" style="stop-color:#FF00FF"/>
		</linearGradient>
		<path class="st11" d="M284.06,220.88c0,0-66.49-90.23-221.39-122.56c0,0-1.24-19.56,55.59-4.72c0,0,152.55,35.06,235.18,86.91
			C353.44,180.51,308.57,203.4,284.06,220.88z"/>
		<linearGradient id="SVGID_10_" gradientUnits="userSpaceOnUse" x1="97.4189" y1="102.4907" x2="236.58" y2="393.1826">
			<stop  offset="0" style="stop-color:#FAB2FA"/>
			<stop  offset="0.1788" style="stop-color:#F8F8F8"/>
			<stop  offset="0.2355" style="stop-color:#F8F1F8"/>
			<stop  offset="0.3152" style="stop-color:#F9DFF9"/>
			<stop  offset="0.4086" style="stop-color:#FAC1FA"/>
			<stop  offset="0.5124" style="stop-color:#FB97FB"/>
			<stop  offset="0.6246" style="stop-color:#FC61FC"/>
			<stop  offset="0.7424" style="stop-color:#FE21FE"/>
			<stop  offset="0.7775" style="stop-color:#FF0CFF"/>
			<stop  offset="1" style="stop-color:#FF00FF"/>
		</linearGradient>
		<path class="st12" d="M284.06,220.89l0,0.02c-60.3,41.2-122.41,101.56-166.14,189.09l-0.05,0.05
			C19.68,254.62,62.67,98.32,62.67,98.32C211.91,126.29,284.06,220.89,284.06,220.89z"/>
		<linearGradient id="SVGID_11_" gradientUnits="userSpaceOnUse" x1="849.1802" y1="29.9559" x2="764.1373" y2="328.3789">
			<stop  offset="0" style="stop-color:#FAB2FA"/>
			<stop  offset="0.1788" style="stop-color:#F8F8F8"/>
			<stop  offset="0.2355" style="stop-color:#F8F1F8"/>
			<stop  offset="0.3152" style="stop-color:#F9DFF9"/>
			<stop  offset="0.4086" style="stop-color:#FAC1FA"/>
			<stop  offset="0.5124" style="stop-color:#FB97FB"/>
			<stop  offset="0.6246" style="stop-color:#FC61FC"/>
			<stop  offset="0.7424" style="stop-color:#FE21FE"/>
			<stop  offset="0.7775" style="stop-color:#FF0CFF"/>
			<stop  offset="1" style="stop-color:#FF00FF"/>
		</linearGradient>
		<path class="st13" d="M811.8,3.09c-6.14-6.3-15.12,12.95-22.64,20.4C768.6,63.18,736.6,98.31,736.6,98.31
			c-35.58,45.34-36.84,92.86-36.84,92.86c57.1,26.93,117.56,69.87,170.94,138.04C924.74,132,811.8,3.09,811.8,3.09z"/>
		<linearGradient id="SVGID_12_" gradientUnits="userSpaceOnUse" x1="620.2927" y1="107.3261" x2="789.1642" y2="107.3261">
			<stop  offset="0" style="stop-color:#F8F8F8"/>
			<stop  offset="0.0694" style="stop-color:#F8F1F8"/>
			<stop  offset="0.167" style="stop-color:#F9DFF9"/>
			<stop  offset="0.2813" style="stop-color:#FAC1FA"/>
			<stop  offset="0.4083" style="stop-color:#FB97FB"/>
			<stop  offset="0.5457" style="stop-color:#FC61FC"/>
			<stop  offset="0.6898" style="stop-color:#FE21FE"/>
			<stop  offset="0.7328" style="stop-color:#FF0CFF"/>
			<stop  offset="1" style="stop-color:#FF00FF"/>
		</linearGradient>
		<path class="st14" d="M789.16,23.48C768.6,63.18,736.6,98.31,736.6,98.31c-35.58,45.34-36.84,92.86-36.84,92.86
			c-27.67-13.04-54.54-22.33-79.46-28.92l-0.02-0.02c0,0,56.02-51.91,111.37-90.47C731.66,71.76,762.79,49.62,789.16,23.48z"/>
		<path class="st1" d="M82.2,595.46c-2.31-77.63,74.74-250.47,74.74-250.47c-14.1,19.7-27.23,41.33-39.01,64.89
			c-16.22,32.25-29.74,68.17-39.97,107.95c-0.58,1.93-0.97,3.86-1.36,5.79c-0.58,2.51-1.16,5.02-1.74,7.53
			c-2.89,12.36-5.4,25.3-7.53,38.43c-0.96,6.57-1.92,13.33-2.89,20.28c-0.19,0.58-0.19,1.35-0.19,1.93
			c-0.2,1.16-0.39,2.12-0.39,3.28c-0.39,1.74-0.39,3.48-0.58,5.21c-0.39,1.55-0.39,2.9-0.58,4.44c-0.39,3.86-0.77,7.53-1.16,11.39
			c0,2.32,0.39,5.41,1.35,7.92c0.2,0.39,0.58,0.97,0.77,1.35c0.39,0.39,0.77,0.77,0.97,1.16v0.19c0.38,0.77,0.77,1.55,1.35,2.32
			h0.19c0.2,0.39,0.58,0.97,0.77,1.16v0.19c1.36,2.12,2.89,4.44,5.03,7.15c0.19,0.39,0.39,0.58,0.58,0.97
			c16.42,22.98,51.17,64.7,110.27,103.13c7.35,4.63,15.07,9.27,22.98,13.9c1.36,0.97,2.9,1.74,4.45,2.51
			c0.96,0.58,1.92,0.97,2.7,1.55c1.93,1.16,3.87,2.12,5.99,3.28h0.2c3.86,2.13,7.72,4.06,11.78,5.99c1.93,0.97,3.86,1.93,5.79,2.9
			c5.03,2.51,10.24,4.83,15.64,7.15c10.04,4.44,20.47,8.69,31.48,12.75c4.25,1.54,8.69,3.09,13.14,4.44
			c4.83,1.74,9.85,3.28,14.87,4.63c5.02,1.55,10.04,3.09,15.26,4.44c0.58,0.19,0.96,0.39,1.55,0.58c0.19,0,0.58,0.19,0.77,0.19
			c11.97,3.09,24.33,5.99,37.27,8.5l35.2,6.03C83.22,705.77,82.2,595.46,82.2,595.46z"/>
		<linearGradient id="SVGID_13_" gradientUnits="userSpaceOnUse" x1="61.7317" y1="615.0245" x2="144.1249" y2="602.8014">
			<stop  offset="0" style="stop-color:#F8F8F8"/>
			<stop  offset="0.0512" style="stop-color:#F9DBF9"/>
			<stop  offset="0.1499" style="stop-color:#FAA8FA"/>
			<stop  offset="0.2534" style="stop-color:#FC7BFC"/>
			<stop  offset="0.3596" style="stop-color:#FD55FD"/>
			<stop  offset="0.4694" style="stop-color:#FD36FD"/>
			<stop  offset="0.5836" style="stop-color:#FE1EFE"/>
			<stop  offset="0.7045" style="stop-color:#FF0DFF"/>
			<stop  offset="0.8364" style="stop-color:#FF03FF"/>
			<stop  offset="1" style="stop-color:#FF00FF"/>
		</linearGradient>
		<path class="st15" d="M82.2,595.46c-2.31-77.63,74.74-250.47,74.74-250.47c-14.1,19.7-27.23,41.33-39.01,64.89
			c-16.22,32.25-29.74,68.17-39.97,107.95c-0.58,1.93-0.97,3.86-1.36,5.79c-0.58,2.51-1.16,5.02-1.74,7.53
			c-2.89,12.36-5.4,25.3-7.53,38.43c-0.96,6.57-1.92,13.33-2.89,20.28c-0.19,0.58-0.19,1.35-0.19,1.93
			c-0.2,1.16-0.39,2.12-0.39,3.28c-0.39,1.74-0.39,3.48-0.58,5.21c-0.39,1.55-0.39,2.9-0.58,4.44c-0.39,3.86-0.77,7.53-1.16,11.39
			c0,2.32,0.39,5.41,1.35,7.92c0.2,0.39,0.58,0.97,0.77,1.35c0.39,0.39,0.77,0.77,0.97,1.16v0.19c0.38,0.77,0.77,1.55,1.35,2.32
			h0.19c0.2,0.39,0.58,0.97,0.77,1.16v0.19c1.36,2.12,2.89,4.44,5.03,7.15c0.19,0.39,0.39,0.58,0.58,0.97
			c16.42,22.98,51.17,64.7,110.27,103.13c7.35,4.63,15.07,9.27,22.98,13.9c1.36,0.97,2.9,1.74,4.45,2.51
			c0.96,0.58,1.92,0.97,2.7,1.55c1.93,1.16,3.87,2.12,5.99,3.28h0.2c3.86,2.13,7.72,4.06,11.78,5.99c1.93,0.97,3.86,1.93,5.79,2.9
			c5.03,2.51,10.24,4.83,15.64,7.15c10.04,4.44,20.47,8.69,31.48,12.75c4.25,1.54,8.69,3.09,13.14,4.44
			c4.83,1.74,9.85,3.28,14.87,4.63c5.02,1.55,10.04,3.09,15.26,4.44c0.58,0.19,0.96,0.39,1.55,0.58c0.19,0,0.58,0.19,0.77,0.19
			c11.97,3.09,24.33,5.99,37.27,8.5l35.2,6.03C83.22,705.77,82.2,595.46,82.2,595.46z"/>
		<linearGradient id="SVGID_14_" gradientUnits="userSpaceOnUse" x1="254.53" y1="887.685" x2="401.09" y2="887.685">
			<stop  offset="0" style="stop-color:#FF00FF;stop-opacity:0.2"/>
			<stop  offset="0.412" style="stop-color:#FD46FD;stop-opacity:0.4245"/>
			<stop  offset="0.6835" style="stop-color:#FB9FFB;stop-opacity:0.6902"/>
			<stop  offset="0.8988" style="stop-color:#F9DFF9;stop-opacity:0.901"/>
			<stop  offset="1" style="stop-color:#F8F8F8"/>
		</linearGradient>
		<path class="st16" d="M401.09,820.28c-0.03,0.02-0.05,0.03-0.08,0.05c-0.02,0.02-0.05,0.03-0.08,0.05
			c-17.22,10.98-66.47,47.53-135.28,140.55c-3.74-2.04-7.44-4.14-11.12-6.29c3.76-5.56,7.6-11.13,11.59-16.41
			c3.08-4.37,6.16-8.59,9.07-12.8c0.33-0.16,0.49-0.32,0.49-0.49c3.24-4.37,6.48-8.74,9.72-12.96c6.32-8.42,12.8-16.52,18.8-24.3
			c0.48-0.49,0.81-0.97,1.13-1.46c5.83-7.13,11.34-13.93,16.53-20.25c0.16,0,0.16-0.16,0.16-0.16c0.65-0.81,1.13-1.3,1.62-1.95
			c2.27-2.59,4.37-5.18,6.48-7.78c2.27-2.43,4.21-4.86,6.16-7.12c9.88-11.67,17.98-20.74,23.33-26.74c0.97-1.13,1.94-2.1,2.75-3.08
			l2.6-2.75v-0.16c0.64-0.49,0.97-0.98,1.29-1.3c0.16,0,0.16-0.16,0.33-0.32c0.02,0,0.04,0,0.05-0.02c0.08-0.01,0.1-0.09,0.1-0.13
			c0.01-0.01,0.01-0.02,0.01-0.02c0.17,0,0.29,0.05,0.42,0.09c0.01,0.01,0.02,0.01,0.03,0.01s0.02,0.01,0.03,0.01
			c0.1,0.03,0.2,0.06,0.33,0.06h0.01c0.09,0,0.18,0.01,0.27,0.04c0.07,0.01,0.15,0.03,0.23,0.06c0.02,0.01,0.04,0.02,0.07,0.02
			c0.16,0.06,0.34,0.13,0.55,0.2c0.33,0,0.65,0.16,0.97,0.16c0.33,0,0.81,0.16,1.14,0.16c0.33,0.09,0.69,0.13,1.07,0.17
			c0.03,0,0.05,0,0.07,0.01c0.37,0.03,0.75,0.07,1.13,0.15c0.13,0,0.15,0,0.24,0.09c0.02,0.01,0.05,0.04,0.08,0.07
			c0.1,0,0.2,0,0.3,0.01c0.22,0,0.45,0.04,0.67,0.15c1.21,0.31,2.41,0.6,3.74,0.77c0.1,0.02,0.21,0.03,0.31,0.04
			c1.14,0.21,2.34,0.41,3.52,0.57c0.27,0.04,0.54,0.07,0.81,0.11c0.4,0.05,0.79,0.09,1.18,0.13c3.39,0.52,6.92,1.13,10.43,1.7
			c0.55,0.08,1.09,0.16,1.62,0.25c0.31,0.05,0.62,0.1,0.93,0.16c0.08,0.01,0.15,0.02,0.23,0.03
			C398.43,819.88,399.73,820.11,401.09,820.28z"/>
		<g>
			<path class="st0" d="M484.78,590.79c0,0,13.62,20.65,48.76,2.64c0,0,24.16-23.28,54.47-6.15c0,0,29.82,7.52,38.66-13.18
				c0,0,2.05-3.02,4.45-0.84c1.26,1.15,1.48,4.17-4.45,14.19c0,0-9.25,15.17-52.82,3.73c0,0-20.54-3.24-42.94,12.79
				c0,0-32.95,13.18-49.2-7.25C481.7,596.72,476.43,589.91,484.78,590.79z"/>
		</g>
	</g>
</g>
</svg>
