<?xml version="1.0" encoding="utf-8"?>
<!-- Generator: Adobe Illustrator 23.0.1, SVG Export Plug-In . SVG Version: 6.00 Build 0)  -->
<svg version="1.1" xmlns="http://www.w3.org/2000/svg" xmlns:xlink="http://www.w3.org/1999/xlink" x="0px" y="0px"
	 viewBox="0 0 64 64" style="enable-background:new 0 0 64 64;" xml:space="preserve">
<style type="text/css">
	.st0{fill:#0D0C38;}
	.st1{fill:none;}
	.st2{fill:url(#SVGID_1_);}
	.st3{fill:url(#SVGID_2_);}
	.st4{fill:url(#SVGID_3_);}
	.st5{opacity:0.4;fill:url(#SVGID_4_);enable-background:new    ;}
</style>
<g id="circle">
	<g id="circle_1_">
		<ellipse transform="matrix(0.7068 -0.7074 0.7074 0.7068 -13.2548 32.0192)" class="st0" cx="32" cy="32" rx="34.11" ry="29.74"/>
	</g>
</g>
<g id="weeb">
	<g>
		<g>
			<g id="weeb_1_">
				<g>
					<g>
						<path class="st1" d="M26.6,21.19"/>
						<g>
							
								<linearGradient id="SVGID_1_" gradientUnits="userSpaceOnUse" x1="62.5571" y1="33.9798" x2="109.3794" y2="33.9798" gradientTransform="matrix(1 0 0.1375 -1 -58.5204 66)">
								<stop  offset="3.724828e-03" style="stop-color:#FF00FF"/>
								<stop  offset="0.1639" style="stop-color:#FF00FF"/>
								<stop  offset="0.2791" style="stop-color:#D032FF"/>
								<stop  offset="0.463" style="stop-color:#8A7CFF"/>
								<stop  offset="0.6158" style="stop-color:#57B2FF"/>
								<stop  offset="0.7295" style="stop-color:#37D3FF"/>
								<stop  offset="0.7914" style="stop-color:#2BE0FF"/>
								<stop  offset="1" style="stop-color:#2BE0FF"/>
							</linearGradient>
							<path class="st2" d="M43.26,52.9c-5.18,0-8.82-4.22-8.11-9.4l3.16-22.95c0.35-2.54-1.43-4.61-3.97-4.61
								c-2.54,0-4.89,2.07-5.24,4.61L25.93,43.5c-0.71,5.18-5.51,9.4-10.69,9.4s-8.82-4.22-8.11-9.4l3.07-22.31h4.79L11.93,43.5
								c-0.35,2.54,1.43,4.61,3.97,4.61s4.89-2.07,5.24-4.61l3.16-22.95c0.71-5.18,5.51-9.4,10.69-9.4s8.82,4.22,8.11,9.4
								L39.94,43.5c-0.35,2.54,1.43,4.61,3.97,4.61c2.54,0,4.89-2.07,5.24-4.61l3.07-22.31h4.79L53.95,43.5
								C53.24,48.68,48.44,52.9,43.26,52.9z"/>
						</g>
						
							<linearGradient id="SVGID_2_" gradientUnits="userSpaceOnUse" x1="70.5224" y1="54.0971" x2="70.9497" y2="38.7132" gradientTransform="matrix(1 0 0.1375 -1 -58.5204 66)">
							<stop  offset="2.237672e-07" style="stop-color:#291965"/>
							<stop  offset="0.4769" style="stop-color:#C407D2"/>
							<stop  offset="0.6685" style="stop-color:#FF00FF"/>
						</linearGradient>
						<path class="st3" d="M15.08,20.54c0.35-2.54,2.7-4.61,5.24-4.61c2.54,0,4.32,2.07,3.97,4.61c0.33-2.4,1.54-4.6,3.26-6.26
							c-1.46-1.92-3.79-3.14-6.57-3.14c-5.18,0-9.98,4.22-10.69,9.4l-0.84,6.12h4.79L15.08,20.54z"/>
						
							<linearGradient id="SVGID_3_" gradientUnits="userSpaceOnUse" x1="101.1402" y1="54.4826" x2="101.2795" y2="31.2199" gradientTransform="matrix(1 0 0.1375 -1 -58.5204 66)">
							<stop  offset="5.041410e-03" style="stop-color:#15376A"/>
							<stop  offset="0.0518" style="stop-color:#163F71"/>
							<stop  offset="0.1242" style="stop-color:#195584"/>
							<stop  offset="0.2134" style="stop-color:#1D79A2"/>
							<stop  offset="0.3057" style="stop-color:#23A5C8"/>
							<stop  offset="0.4345" style="stop-color:#27C5E5"/>
							<stop  offset="0.5428" style="stop-color:#2AD8F7"/>
							<stop  offset="0.6173" style="stop-color:#2BDFFE"/>
							<stop  offset="1" style="stop-color:#2BE0FF"/>
						</linearGradient>
						<path class="st4" d="M49,11.14c-2.78,0-5.45,1.21-7.44,3.14c1.26,1.66,1.87,3.86,1.54,6.26c0.35-2.54,2.7-4.61,5.24-4.61
							c2.54,0,4.32,2.07,3.97,4.61l-0.81,5.87h4.79l0.81-5.87C57.82,15.36,54.18,11.14,49,11.14z"/>
					</g>
				</g>
				
					<linearGradient id="SVGID_4_" gradientUnits="userSpaceOnUse" x1="78.9639" y1="17.8029" x2="92.9725" y2="17.8029" gradientTransform="matrix(1 0 0.1375 -1 -58.5204 66)">
					<stop  offset="2.077838e-07" style="stop-color:#FF00FF"/>
					<stop  offset="0.2121" style="stop-color:#C043FF"/>
					<stop  offset="0.4136" style="stop-color:#8B7BFF"/>
					<stop  offset="0.5987" style="stop-color:#61A7FF"/>
					<stop  offset="0.764" style="stop-color:#44C6FF"/>
					<stop  offset="0.9033" style="stop-color:#31D9FF"/>
					<stop  offset="1" style="stop-color:#2BE0FF"/>
				</linearGradient>
				<path class="st5" d="M35.15,43.5c-0.35,2.54-2.7,4.61-5.24,4.61c-2.54,0-4.32-2.07-3.97-4.61c-0.33,2.4-1.54,4.6-3.26,6.26
					c1.46,1.92,3.79,3.14,6.57,3.14s5.45-1.21,7.44-3.14C35.42,48.09,34.82,45.9,35.15,43.5z"/>
			</g>
		</g>
	</g>
</g>
</svg>
